<svg version="1.2" xmlns="http://www.w3.org/2000/svg" viewBox="0 0 1080 1080" width="1080" height="1080">
	<defs>
		<linearGradient id="g1" x2="1" gradientUnits="userSpaceOnUse" gradientTransform="matrix(782.775,0,0,204.876,55.457,196.074)">
			<stop offset="0" stop-color="#ecd0d0"/>
			<stop offset=".219" stop-color="#b49ac2"/>
			<stop offset="1" stop-color="#7a71d4"/>
		</linearGradient>
		<linearGradient id="g2" x2="1" gradientUnits="userSpaceOnUse" gradientTransform="matrix(566.061,886.682,-827.066,528.002,556.164,-303.627)">
			<stop offset=".057" stop-color="#f3d6d2"/>
			<stop offset="1" stop-color="#b49ac2"/>
		</linearGradient>
		<linearGradient id="g3" x2="1" gradientUnits="userSpaceOnUse" gradientTransform="matrix(1333.553,86.73,-49.26,757.421,2.478,509.004)">
			<stop offset="0" stop-color="#5700a4"/>
			<stop offset="1" stop-color="#ffffff"/>
		</linearGradient>
		<linearGradient id="g4" x2="1" gradientUnits="userSpaceOnUse" gradientTransform="matrix(334.073,21.727,-24.415,375.403,591.506,354.117)">
			<stop offset="0" stop-color="#5700a4"/>
			<stop offset="1" stop-color="#ffffff"/>
		</linearGradient>
		<linearGradient id="g5" x2="1" gradientUnits="userSpaceOnUse" gradientTransform="matrix(454.357,29.55,-29.954,460.578,149.261,150.659)">
			<stop offset="0" stop-color="#5700a4"/>
			<stop offset="1" stop-color="#ffffff"/>
		</linearGradient>
		<linearGradient id="g6" x2="1" gradientUnits="userSpaceOnUse" gradientTransform="matrix(2.051,-31.542,40.168,2.612,36.621,323.488)">
			<stop offset="0" stop-color="#000000"/>
			<stop offset="1" stop-color="#ffa463"/>
		</linearGradient>
		<linearGradient id="g7" x2="1" gradientUnits="userSpaceOnUse" gradientTransform="matrix(19.35,1.258,-0.669,10.281,61.326,307.865)">
			<stop offset="0" stop-color="#7700a4"/>
			<stop offset="1" stop-color="#ffffff"/>
		</linearGradient>
		<linearGradient id="g8" x2="1" gradientUnits="userSpaceOnUse" gradientTransform="matrix(64.825,4.216,-1.24,19.061,99.017,242.933)">
			<stop offset="0" stop-color="#ffa463"/>
			<stop offset="1" stop-color="#000000"/>
		</linearGradient>
		<linearGradient id="g9" x2="1" gradientUnits="userSpaceOnUse" gradientTransform="matrix(47.647,3.099,-1.385,21.293,110.39,275.81)">
			<stop offset="0" stop-color="#ffa463"/>
			<stop offset="1" stop-color="#000000"/>
		</linearGradient>
		<linearGradient id="g10" x2="1" gradientUnits="userSpaceOnUse" gradientTransform="matrix(63.052,4.101,-4.34,66.735,89.604,291.198)">
			<stop offset="0" stop-color="#5700a4"/>
			<stop offset="1" stop-color="#ffffff"/>
		</linearGradient>
		<linearGradient id="g11" x2="1" gradientUnits="userSpaceOnUse" gradientTransform="matrix(29.285,1.905,-3.544,54.5,197.408,265.027)">
			<stop offset="0" stop-color="#5700a4"/>
			<stop offset="1" stop-color="#ffffff"/>
		</linearGradient>
		<linearGradient id="g12" x2="1" gradientUnits="userSpaceOnUse" gradientTransform="matrix(109.656,7.132,-3.542,54.462,227.64,163.962)">
			<stop offset="0" stop-color="#5700a4"/>
			<stop offset="1" stop-color="#ffffff"/>
		</linearGradient>
		<linearGradient id="g13" x2="1" gradientUnits="userSpaceOnUse" gradientTransform="matrix(141.653,9.213,-3.759,57.793,203.088,190.643)">
			<stop offset="0" stop-color="#ffa463"/>
			<stop offset="1" stop-color="#000000"/>
		</linearGradient>
		<linearGradient id="g14" x2="1" gradientUnits="userSpaceOnUse" gradientTransform="matrix(110.911,7.213,-4.288,65.931,250.299,199.01)">
			<stop offset="0" stop-color="#7700a4"/>
			<stop offset="1" stop-color="#ffffff"/>
		</linearGradient>
		<linearGradient id="g15" x2="1" gradientUnits="userSpaceOnUse" gradientTransform="matrix(68.61,4.462,-5.265,80.954,321.598,417.08)">
			<stop offset="0" stop-color="#5700a4"/>
			<stop offset="1" stop-color="#ffffff"/>
		</linearGradient>
		<linearGradient id="g16" x2="1" gradientUnits="userSpaceOnUse" gradientTransform="matrix(44.705,2.907,-2.098,32.254,166.173,581.618)">
			<stop offset="0" stop-color="#7700a4"/>
			<stop offset="1" stop-color="#ffffff"/>
		</linearGradient>
		<linearGradient id="g17" x2="1" gradientUnits="userSpaceOnUse" gradientTransform="matrix(171.577,11.159,-9.988,153.575,23.691,621.483)">
			<stop offset="0" stop-color="#ffffff"/>
			<stop offset="1" stop-color="#7700a4"/>
		</linearGradient>
		<linearGradient id="g18" x2="1" gradientUnits="userSpaceOnUse" gradientTransform="matrix(124.985,8.129,-8.06,123.933,311.068,630.327)">
			<stop offset="0" stop-color="#7700a4"/>
			<stop offset="1" stop-color="#ffffff"/>
		</linearGradient>
		<linearGradient id="g19" x2="1" gradientUnits="userSpaceOnUse" gradientTransform="matrix(7.787,-119.732,133.073,8.655,495.89,684.346)">
			<stop offset="0" stop-color="#ffffff"/>
			<stop offset="1" stop-color="#7700a4"/>
		</linearGradient>
		<linearGradient id="g20" x2="1" gradientUnits="userSpaceOnUse" gradientTransform="matrix(144.514,9.399,-5.92,91.019,580.603,721.44)">
			<stop offset="0" stop-color="#5700a4"/>
			<stop offset="1" stop-color="#ffffff"/>
		</linearGradient>
		<linearGradient id="g21" x2="1" gradientUnits="userSpaceOnUse" gradientTransform="matrix(48.569,3.159,-4.271,65.67,741.24,727.165)">
			<stop offset="0" stop-color="#5700a4"/>
			<stop offset="1" stop-color="#ffffff"/>
		</linearGradient>
		<linearGradient id="g22" x2="1" gradientUnits="userSpaceOnUse" gradientTransform="matrix(96.487,6.275,-9.54,146.683,115.215,865.66)">
			<stop offset="0" stop-color="#7700a4"/>
			<stop offset="1" stop-color="#ffffff"/>
		</linearGradient>
		<linearGradient id="g23" x2="1" gradientUnits="userSpaceOnUse" gradientTransform="matrix(71.812,4.67,-12.244,188.257,785.078,811.469)">
			<stop offset="0" stop-color="#5700a4"/>
			<stop offset="1" stop-color="#ffffff"/>
		</linearGradient>
		<linearGradient id="g24" x2="1" gradientUnits="userSpaceOnUse" gradientTransform="matrix(189.798,12.344,-12.854,197.649,533.146,510.064)">
			<stop offset="0" stop-color="#7700a4"/>
			<stop offset="1" stop-color="#ffffff"/>
		</linearGradient>
		<linearGradient id="g25" x2="1" gradientUnits="userSpaceOnUse" gradientTransform="matrix(60.081,3.907,-10.463,160.874,654.623,365.445)">
			<stop offset="0" stop-color="#5700a4"/>
			<stop offset="1" stop-color="#ffffff"/>
		</linearGradient>
		<linearGradient id="g26" x2="1" gradientUnits="userSpaceOnUse" gradientTransform="matrix(59.875,3.894,-8.342,128.27,778.356,565.43)">
			<stop offset="0" stop-color="#7700a4"/>
			<stop offset="1" stop-color="#ffffff"/>
		</linearGradient>
		<linearGradient id="g27" x2="1" gradientUnits="userSpaceOnUse" gradientTransform="matrix(289.566,18.832,-17.336,266.563,13.049,365.442)">
			<stop offset="0" stop-color="#fe8bff"/>
			<stop offset="1" stop-color="#000000"/>
		</linearGradient>
		<linearGradient id="g28" x2="1" gradientUnits="userSpaceOnUse" gradientTransform="matrix(0,842.15,-1363.31,0,746.002,-115.772)">
			<stop offset="0" stop-color="#84beff"/>
			<stop offset="1" stop-color="#712faf"/>
		</linearGradient>
		<linearGradient id="g29" x2="1" gradientUnits="userSpaceOnUse" gradientTransform="matrix(154.099,10.022,-8.375,128.769,145.909,703.812)">
			<stop offset="0" stop-color="#1d0063"/>
			<stop offset="1" stop-color="#000000"/>
		</linearGradient>
		<linearGradient id="g30" x2="1" gradientUnits="userSpaceOnUse" gradientTransform="matrix(106.523,6.928,-6.271,96.416,185.361,600.626)">
			<stop offset="0" stop-color="#1d0063"/>
			<stop offset="1" stop-color="#000000"/>
		</linearGradient>
		<linearGradient id="g31" x2="1" gradientUnits="userSpaceOnUse" gradientTransform="matrix(-143.046,125.575,-324.577,-369.733,842.168,785.283)">
			<stop offset="0" stop-color="#000000"/>
			<stop offset="1" stop-color="#1d0063"/>
		</linearGradient>
		<linearGradient id="g32" x2="1" gradientUnits="userSpaceOnUse" gradientTransform="matrix(12.23,-188.052,217.232,14.128,851.045,646.524)">
			<stop offset="0" stop-color="#ffffff"/>
			<stop offset="1" stop-color="#5700a4"/>
		</linearGradient>
		<linearGradient id="g33" x2="1" gradientUnits="userSpaceOnUse" gradientTransform="matrix(12.052,.784,-1.881,28.929,795.248,664.641)">
			<stop offset="0" stop-color="#a1007c"/>
			<stop offset="1" stop-color="#d081be"/>
		</linearGradient>
		<linearGradient id="g34" x2="1" gradientUnits="userSpaceOnUse" gradientTransform="matrix(19.868,1.292,-2.558,39.338,695.688,471.733)">
			<stop offset="0" stop-color="#a1007c"/>
			<stop offset="1" stop-color="#d081be"/>
		</linearGradient>
		<linearGradient id="g35" x2="1" gradientUnits="userSpaceOnUse" gradientTransform="matrix(3.915,.255,-0.603,9.267,407.659,664.719)">
			<stop offset="0" stop-color="#a1007c"/>
			<stop offset="1" stop-color="#d081be"/>
		</linearGradient>
		<linearGradient id="g36" x2="1" gradientUnits="userSpaceOnUse" gradientTransform="matrix(13.587,.884,-1.491,22.925,753.226,599.924)">
			<stop offset="0" stop-color="#a1007c"/>
			<stop offset="1" stop-color="#d081be"/>
		</linearGradient>
		<linearGradient id="g37" x2="1" gradientUnits="userSpaceOnUse" gradientTransform="matrix(932.655,60.657,-74.78,1149.815,-124.83,597.213)">
			<stop offset="0" stop-color="#a1007c"/>
			<stop offset="1" stop-color="#d081be"/>
		</linearGradient>
		<linearGradient id="g38" x2="1" gradientUnits="userSpaceOnUse" gradientTransform="matrix(932.633,60.655,-43.318,666.053,-132.455,714.591)">
			<stop offset="0" stop-color="#a1007c"/>
			<stop offset="1" stop-color="#d081be"/>
		</linearGradient>
		<linearGradient id="g39" x2="1" gradientUnits="userSpaceOnUse" gradientTransform="matrix(932.619,60.654,-20.902,321.393,-132.107,709.461)">
			<stop offset="0" stop-color="#a1007c"/>
			<stop offset="1" stop-color="#d081be"/>
		</linearGradient>
		<linearGradient id="g40" x2="1" gradientUnits="userSpaceOnUse" gradientTransform="matrix(932.629,60.655,-38.449,591.194,-122.785,566.049)">
			<stop offset="0" stop-color="#a1007c"/>
			<stop offset="1" stop-color="#d081be"/>
		</linearGradient>
		<linearGradient id="g41" x2="1" gradientUnits="userSpaceOnUse" gradientTransform="matrix(13.451,.875,-1.23,18.912,466.954,615.202)">
			<stop offset="0" stop-color="#a1007c"/>
			<stop offset="1" stop-color="#d081be"/>
		</linearGradient>
		<linearGradient id="g42" x2="1" gradientUnits="userSpaceOnUse" gradientTransform="matrix(13.32,.866,-3.591,55.222,722.413,515.955)">
			<stop offset="0" stop-color="#a1007c"/>
			<stop offset="1" stop-color="#d081be"/>
		</linearGradient>
		<linearGradient id="g43" x2="1" gradientUnits="userSpaceOnUse" gradientTransform="matrix(932.605,60.653,-22.306,342.972,-116.705,472.82)">
			<stop offset="0" stop-color="#a1007c"/>
			<stop offset="1" stop-color="#d081be"/>
		</linearGradient>
		<linearGradient id="g44" x2="1" gradientUnits="userSpaceOnUse" gradientTransform="matrix(932.641,60.656,-74.962,1152.614,-99.52,208.466)">
			<stop offset="0" stop-color="#a1007c"/>
			<stop offset="1" stop-color="#d081be"/>
		</linearGradient>
		<linearGradient id="g45" x2="1" gradientUnits="userSpaceOnUse" gradientTransform="matrix(932.587,60.652,-46.234,710.887,-111.188,388.106)">
			<stop offset="0" stop-color="#a1007c"/>
			<stop offset="1" stop-color="#d081be"/>
		</linearGradient>
		<linearGradient id="g46" x2="1" gradientUnits="userSpaceOnUse" gradientTransform="matrix(932.604,60.653,-88.785,1365.15,-100.742,227.479)">
			<stop offset="0" stop-color="#a1007c"/>
			<stop offset="1" stop-color="#d081be"/>
		</linearGradient>
		<linearGradient id="g47" x2="1" gradientUnits="userSpaceOnUse" gradientTransform="matrix(932.58,60.652,-62.22,956.694,-109.689,365.209)">
			<stop offset="0" stop-color="#a1007c"/>
			<stop offset="1" stop-color="#d081be"/>
		</linearGradient>
		<linearGradient id="g48" x2="1" gradientUnits="userSpaceOnUse" gradientTransform="matrix(932.628,60.655,-66.662,1024.995,-98.872,198.641)">
			<stop offset="0" stop-color="#a1007c"/>
			<stop offset="1" stop-color="#d081be"/>
		</linearGradient>
		<linearGradient id="g49" x2="1" gradientUnits="userSpaceOnUse" gradientTransform="matrix(14.196,.923,-1.907,29.32,259.879,248.482)">
			<stop offset="0" stop-color="#5700a4"/>
			<stop offset="1" stop-color="#ffffff"/>
		</linearGradient>
		<linearGradient id="g50" x2="1" gradientUnits="userSpaceOnUse" gradientTransform="matrix(932.586,60.652,-47.357,728.16,-109.22,357.9)">
			<stop offset="0" stop-color="#a1007c"/>
			<stop offset="1" stop-color="#d081be"/>
		</linearGradient>
		<linearGradient id="g51" x2="1" gradientUnits="userSpaceOnUse" gradientTransform="matrix(6.138,.399,-1.302,20.019,347.841,701.701)">
			<stop offset="0" stop-color="#a1007c"/>
			<stop offset="1" stop-color="#d081be"/>
		</linearGradient>
		<linearGradient id="g52" x2="1" gradientUnits="userSpaceOnUse" gradientTransform="matrix(932.604,60.653,-18.88,290.291,-125.869,613.652)">
			<stop offset="0" stop-color="#a1007c"/>
			<stop offset="1" stop-color="#d081be"/>
		</linearGradient>
		<linearGradient id="g53" x2="1" gradientUnits="userSpaceOnUse" gradientTransform="matrix(932.375,60.639,-83.774,1288.103,-100.003,217.653)">
			<stop offset="0" stop-color="#a1007c"/>
			<stop offset="1" stop-color="#d081be"/>
		</linearGradient>
		<linearGradient id="g54" x2="1" gradientUnits="userSpaceOnUse" gradientTransform="matrix(932.624,60.655,-37.176,571.617,-128.777,658.222)">
			<stop offset="0" stop-color="#a1007c"/>
			<stop offset="1" stop-color="#d081be"/>
		</linearGradient>
		<linearGradient id="g55" x2="1" gradientUnits="userSpaceOnUse" gradientTransform="matrix(994.431,0,0,204.876,85.569,206.286)">
			<stop offset="0" stop-color="#ecd0d0"/>
			<stop offset=".219" stop-color="#b49ac2"/>
			<stop offset="1" stop-color="#7a71d4"/>
		</linearGradient>
	</defs>
	<style>
		.s0 { fill: #6142b7 } 
		.s1 { opacity: .36;mix-blend-mode: multiply;fill: #5700a4 } 
		.s2 { opacity: .44;fill: url(#g1) } 
		.s3 { opacity: .65;fill: #4f105e } 
		.s4 { opacity: .25;fill: #441047 } 
		.s5 { fill: #441047 } 
		.s6 { fill: url(#g2) } 
		.s7 { fill: #380f8d } 
		.s8 { opacity: .72;mix-blend-mode: multiply;fill: #4c0068 } 
		.s9 { opacity: .43;mix-blend-mode: color-dodge;fill: #ffbd57 } 
		.s10 { opacity: .36;mix-blend-mode: multiply;fill: url(#g3) } 
		.s11 { opacity: .36;mix-blend-mode: multiply;fill: url(#g4) } 
		.s12 { opacity: .36;mix-blend-mode: multiply;fill: url(#g5) } 
		.s13 { opacity: .21;mix-blend-mode: color-dodge;fill: url(#g6) } 
		.s14 { opacity: .5;mix-blend-mode: multiply;fill: url(#g7) } 
		.s15 { opacity: .21;mix-blend-mode: color-dodge;fill: url(#g8) } 
		.s16 { opacity: .21;mix-blend-mode: color-dodge;fill: url(#g9) } 
		.s17 { opacity: .5;mix-blend-mode: multiply;fill: #7700a4 } 
		.s18 { opacity: .36;mix-blend-mode: multiply;fill: url(#g10) } 
		.s19 { opacity: .36;mix-blend-mode: multiply;fill: url(#g11) } 
		.s20 { opacity: .36;mix-blend-mode: multiply;fill: url(#g12) } 
		.s21 { opacity: .21;mix-blend-mode: color-dodge;fill: url(#g13) } 
		.s22 { opacity: .5;mix-blend-mode: multiply;fill: url(#g14) } 
		.s23 { opacity: .36;mix-blend-mode: multiply;fill: url(#g15) } 
		.s24 { opacity: .5;mix-blend-mode: multiply;fill: url(#g16) } 
		.s25 { opacity: .5;mix-blend-mode: multiply;fill: url(#g17) } 
		.s26 { opacity: .5;mix-blend-mode: multiply;fill: url(#g18) } 
		.s27 { opacity: .5;mix-blend-mode: multiply;fill: url(#g19) } 
		.s28 { opacity: .36;mix-blend-mode: multiply;fill: url(#g20) } 
		.s29 { opacity: .36;mix-blend-mode: multiply;fill: url(#g21) } 
		.s30 { opacity: .5;mix-blend-mode: multiply;fill: url(#g22) } 
		.s31 { opacity: .36;mix-blend-mode: multiply;fill: url(#g23) } 
		.s32 { opacity: .5;mix-blend-mode: multiply;fill: url(#g24) } 
		.s33 { opacity: .36;mix-blend-mode: multiply;fill: url(#g25) } 
		.s34 { opacity: .5;mix-blend-mode: multiply;fill: url(#g26) } 
		.s35 { fill: url(#g27) } 
		.s36 { fill: url(#g28) } 
		.s37 { opacity: .46;mix-blend-mode: color-dodge;fill: url(#g29) } 
		.s38 { opacity: .46;mix-blend-mode: color-dodge;fill: url(#g30) } 
		.s39 { opacity: .46;mix-blend-mode: color-dodge;fill: url(#g31) } 
		.s40 { opacity: .5;mix-blend-mode: multiply;fill: #5700a4 } 
		.s41 { opacity: .72;mix-blend-mode: multiply;fill: #a1007c } 
		.s42 { opacity: .64;mix-blend-mode: multiply;fill: url(#g32) } 
		.s43 { fill: url(#g33) } 
		.s44 { fill: url(#g34) } 
		.s45 { fill: url(#g35) } 
		.s46 { fill: url(#g36) } 
		.s47 { fill: url(#g37) } 
		.s48 { fill: url(#g38) } 
		.s49 { fill: url(#g39) } 
		.s50 { fill: url(#g40) } 
		.s51 { fill: url(#g41) } 
		.s52 { fill: url(#g42) } 
		.s53 { fill: url(#g43) } 
		.s54 { fill: url(#g44) } 
		.s55 { fill: url(#g45) } 
		.s56 { fill: url(#g46) } 
		.s57 { fill: url(#g47) } 
		.s58 { fill: url(#g48) } 
		.s59 { opacity: .36;mix-blend-mode: multiply;fill: url(#g49) } 
		.s60 { fill: url(#g50) } 
		.s61 { fill: url(#g51) } 
		.s62 { fill: url(#g52) } 
		.s63 { fill: url(#g53) } 
		.s64 { fill: url(#g54) } 
		.s65 { fill: url(#g55) } 
	</style>
	<g id="&lt;Group&gt;">
		<path id="&lt;Path&gt;" class="s0" d="m256.58 86.86c-3.5 6.03-13.78 56.5-19.01 56.01-5.22-0.49-51.58-2.94-62.22 6.8-1.47 1.35-2.71 2.59-3.79 3.75-27.23 26.58-52.29 58.3-69.32 95.08 3.87-6.6 13.87-17.96 35.94-14.54 0 0 18.59-33.55 55.1-75.23 7.44-5.84 63.15-6.3 64.56-9.72 1.4-3.42 9.08-58.19 11.73-60.56 2.65-2.36 74.26-22.45 74.26-22.45 0 0-83.75 14.83-87.25 20.86z"/>
		<path id="&lt;Path&gt;" class="s1" d="m193.28 158.73c7.44-5.84 63.15-6.3 64.56-9.72 1.4-3.42 9.08-58.19 11.73-60.56 2.65-2.36 74.26-22.45 74.26-22.45 0 0-50.78 8.99-74.91 15.82-8.42 2.22-9.64 33.83-12.4 47.81-3.3 16.64 0.49 13.87-18.95 13.24-2.48-0.23-14.22-0.91-27.01-0.51-3.48 0.17-6.66 0.36-9.1 0.49-8.65 0.47-53.48 40.93-71.48 90.5 2.53-0.02 5.25 0.15 8.2 0.61 0 0 18.59-33.55 55.1-75.23z"/>
		<path id="&lt;Path&gt;" class="s2" d="m58.04 296.51c9.08-3.38 48.76 22.89 86.51 47.24 37.75 24.35 19.83 28.23 164.36-77.48 144.53-105.71 199.77-61.58 251.84 74 52.07 135.57 70.42 8.1 82.49-37.12 12.08-45.21 22.94-30.78 54.32 45.89 31.38 76.67 71.02-51.57 104.33-20.72 33.31 30.86 36.34 6.11 36.34 6.11 0 0-4.8 14.78-19.98 0.96-15.18-13.82-15.44-22.49-19.99-21.85-4.55 0.64-31.88 20.25-54.39 42.1-22.52 21.86-43.52 0.97-58.19-38.57-14.67-39.53-19.23-68.77-32.13-44.99-12.9 23.78-24.79 98.35-48.07 111.52-23.27 13.18-46.8-57.21-66.79-104.77-19.98-47.57-72.86-73.6-100.18-81.96-27.32-8.35-105.96 49.18-153.04 83.24-47.07 34.07-100.98 68.81-116.9 68.93-15.91 0.12-52.11-25.38-72.86-39.92-20.74-14.54-40.25-17.76-40.25-17.76z"/>
		<path id="&lt;Path&gt;" class="s3" d="m53.65 686.79c0 0-1.59 24.44-8.89 37.31-7.3 12.88-30.53 72.09-26.19 84.86 4.34 12.77 30.59 39.46 34.33 54.77 3.74 15.32 0.84 26.76-4.25 38.91-5.1 12.16 9.8 34.66 39.33 37.45 0 0-7.63-15.14-7.9-24.2 0 0 23.07 2.74 33.91-18.04 0 0-8.25-5.7-14.59-20.76l3.97-1.46c0 0-7.47-24.17-8.12-40.58 0 0-24-8.45-35.1-16.49-11.11-8.05-13.62-9.07-13.01-18.51 0.61-9.43 38.22-37.99 60.83-54.61 22.61-16.61-54.32-58.65-54.32-58.65z"/>
		<path id="&lt;Path&gt;" class="s3" d="m559.97 767.97c0 0 1.64 21.2 11.7 38.65 10.06 17.45 50.2 22.65 50.2 22.65 0 0-54.69 13.24-58.55 12.99-3.86-0.26-21.63-11.75-32.07 3.08 0 0-36.77-4.12-41.85 14.5 0 0-6.61-4.31-12.75 17.26-6.14 21.56 25.59 23.62 25.59 23.62l3.55 4.97c0 0 5.16-13.01 22.84-20.04l8.1 7.84c0 0 3.58-15.27 14.15-18.88 10.57-3.62 93.79-18.45 114.98-33 0 0-10.66-14.91 1.81-27.88 12.47-12.97-107.7-45.76-107.7-45.76z"/>
		<path id="&lt;Path&gt;" class="s4" d="m99.4 877.09l3.97-1.46c0 0-7.47-24.17-8.12-40.58 0 0-24-8.45-35.1-16.49-11.11-8.05-13.62-9.07-13.01-18.51 0.61-9.43 38.22-37.99 60.83-54.61 22.61-16.61-54.32-58.65-54.32-58.65 0 0-0.83 12.47-3.95 24.29 5.08 6.54 20.43 53.27-1.53 60.73-21.96 7.45-30.13 32.73-12.97 45.5 17.16 12.77 39.23 12.56 44.73 19.87 5.5 7.3 11.8 34.52 6.5 31.59-5.3-2.93-16.98-24.36-16.98-24.36 0 0 7.1 17.42 7.26 27.28 0.17 9.86-13.35 34.01-13.86 27.68-0.5-6.33-5.72-22.01-5.72-22.01 0.73 15.19-8.35 39.77-9.31 32.49 1.45 12.26 15.82 27.94 40.16 30.24 0 0-7.63-15.14-7.9-24.2 0 0 23.07 2.74 33.91-18.04 0 0-8.25-5.7-14.59-20.76z"/>
		<path id="&lt;Path&gt;" class="s5" d="m502.24 900.72l3.55 4.97c0 0 5.16-13.01 22.84-20.04l8.1 7.84c0 0 3.58-15.27 14.15-18.88 10.57-3.62 93.79-18.45 114.98-33 0 0-10.66-14.91 1.81-27.88 7.45-7.75-32.44-22.57-65.77-33.25-2.33 8.16-7.23 30.33 6.36 36.28 16.75 7.33 54.34 25.28 35.19 28.34-19.15 3.06-58.5-7.16-78.73 2.2-20.24 9.36-39.06 24.37-40.9 16.29-1.84-8.09 5.23-17.54 5.23-17.54 0 0-35.71 19.43-38.58 20.53-2.88 1.11-1.07-6.74-1.07-6.74 0 0-10.81 25.09-13.32 20.25-2.47 18.73 26.16 20.63 26.16 20.63z"/>
		<path id="&lt;Compound Path&gt;" fill-rule="evenodd" class="s6" d="m905.34 471.98c-2.16 6.75-17.98-10-37.05-14.68-19.07-4.69-26.26 79.25-31.22 122.42-4.96 43.17-13.32 92.15-17.79 101.34-4.48 9.18-30.74 15.65-43.03 12.7 0 0 11.39 63.18-19.02 100.39 0 0 23.24 20.03 48.74 18.68 0 0 11.84 62.78 34.26 102.14l8.61 6.59c0 0 1.91 50.08-10.24 64.79l-9.58-4.93c0 0-11.97 5.25-12.58 21.14 0 0-33.43-9.06-40.07-32.75-6.64-23.69 18.62-14.72 22.06-41.2 3.45-26.47-9-86.71-9-86.71 0 0-33.69 21.49-103.92-24.42 0 0-82.99 11.39-141.41-57.01 0 0-9.86-86.77-26.06-115.81-16.2-29.05-25.11-24.46-30.79-23.11-5.69 1.35-67.71 41.24-108.34 76.5-40.62 35.25-61.21 47.26-73 56.4 0 0-13.25 24.97-33.95 38.7-20.71 13.73-96.49 46.69-109.26 51.03-12.77 4.33-11.48 30.69 22.43 52.27 0 0-3.95 14.39 2.04 21.67 5.98 7.28 18.49 13.69 18.49 13.69 0 0-15.24 15.8-30.86 10.91 0 0 9.09 32.46 30.01 35.11 0 0-5.67 27.63-52.63 14.67 0 0-0.32 11.6 8.27 18.62 0 0-16.57 9.69-33.45-2.18-16.89-11.86-19.59-23.23-19.48-24.95 0.11-1.71 11.77-2.25 15.04-32.61 3.27-30.36 0.47-80.07 4.19-97.48 3.72-17.42 33.02-50.82 42.37-68.73 0 0-32.19-1.67-70.26-32.14-38.06-30.47-72.2-88.24-90.72-154.47-18.51-66.23-2.5-80.7 18.49-112.06 20.99-31.36 110.65-112.09 166.03-109.34 55.37 2.74 79.72 18.96 111.85 54.65 0 0 22.96-35.12 14.93-103.68-8.03-68.56-58.61-58.94-109.96-30.84 0 0-15.09 20.12-18.66 22.04-3.57 1.92-56.36 5.81-64.33 9.16-7.97 3.36-50.31 38.5-56.37 38.97-6.06 0.47-10.91-25.8-10.91-25.8 0 0-26.55-14-29.6-21.62-3.06-7.63 8.94-25.75 12.11-27.32 3.17-1.57 52.55-20.8 52.55-20.8 0 0 5.89-23.52 9.43-28.29 3.54-4.78 81.31-46.77 141.41-66.97 60.1-20.21 197.07-33.9 236.74 71.17 39.67 105.08-58.65 239.5-127.68 274.63-69.04 35.12-101.49-2.3-106.84-16 0 0-21.69 12.37-38.9 31.92-17.2 19.55-19.04 47.86-19.27 51.29-0.22 3.43 7.76 6.53 7.76 6.53 0 0 180.66-89.45 308.15-89.76 0 0-11.27-45.09 29.14-103.61 40.41-58.53 118.09-67.68 146.6-62.38 28.51 5.3 39.82 36.61 75.89 137.58 36.06 100.96 35.42 130.63 50.17 129.01 14.75-1.63 10.89-107.82 19.67-143.42 8.77-35.6 46.85-31.83 58.1-25.93 11.24 5.9 22.86 27.54 20.7 34.29zm-239.93 178.18c-14.39-30.22-45.57-47.76-45.57-47.76 14.34 31.08 20.33 48.27 24.83 57.82 4.49 9.55 22.29 28.79 22.29 28.79 0 0 12.83-8.63-1.55-38.85zm35.85-103.61c0 0-11.52-76.97-23.44-92.28-11.92-15.31-28.12-9.86-28.12-9.86 0 0-2.93 20.12 14.96 51.81 14.47 25.64 36.6 50.33 36.6 50.33z"/>
		<g id="&lt;Group&gt;">
			<path id="&lt;Path&gt;" class="s7" d="m155.63 227.18c-2.04 2.13-3.07 3.79-3.07 3.79 0.99-1.3 2.06-2.51 3.07-3.79z"/>
		</g>
		<path id="&lt;Path&gt;" class="s8" d="m114.92 284.57c0 0 2.07-5.25 8.84-6.86 6.78-1.6 39.7-1.18 39.7-1.18 0 0-9.49 2.61-14.1 3.6-4.61 1-34.44 4.44-34.44 4.44z"/>
		<path id="&lt;Path&gt;" class="s8" d="m59.21 341.66l15.66 2.48c0 0 6.37-8.47 32.34-20.51 25.98-12.03 32.79-12.56 36.65-12.31 3.86 0.25 8.25 2.31 8.25 2.31 0 0 0.94-7.04 1.99-8.26 1.05-1.23 8.68-1.86 10.57-1.09 1.89 0.77-8.91 2.97-10.19 5.15-1.27 2.18-1.59 7.16-2.08 7.13-0.48-0.03-5.24-4.51-12.17-4.02-6.92 0.49-40.96 13.97-50.69 22.05-9.73 8.09-12 13.27-12.95 12.89-0.94-0.39-4.7-2.25-7.55-3.08-2.85-0.83-9.3-0.09-9.3-0.09z"/>
		<path id="&lt;Path&gt;" class="s8" d="m60.78 317.54c-2.22 1.98 7.3-8.08 11.53-8.45 4.22-0.37 9.69-0.02 7.88 0.51-1.81 0.53-9.98-0.49-19.41 7.94z"/>
		<path id="&lt;Compound Path&gt;" fill-rule="evenodd" class="s9" d="m685.51 817.48c0 0-82.99 11.39-141.41-57.01 0 0-9.86-86.77-26.06-115.81-16.2-29.05-25.11-24.46-30.79-23.11-5.69 1.35-67.71 41.24-108.34 76.5-40.62 35.25-61.21 47.26-73 56.4 12.46-22.66 11.67-33.69 11.67-33.69 0 0 101.07-57.59 158.17-101.25 57.1-43.65 80.59-14.13 90.69 9.35 10.1 23.48 62.42 152.63 119.07 188.62zm-476.03-520.19c6.39-12.07 5.79-29.34 5.79-29.34 0 0 147.54-63.61 198.73-29.7 51.2 33.91 46.52 112.41-77.91 224.46l23.6 27.81c0 0-15.66-17.39-56.93-25.24-41.26-7.85-79.56-8.19-108.35 10.61-28.78 18.8-65.08 93.52-62.96 153.52 2.13 59.99 36.54 93.67 75.99 109.59 0 0-16.86 14.22-38.32 46.17 0 0-32.19-1.67-70.26-32.14-38.06-30.47-72.2-88.24-90.72-154.47-18.51-66.23-2.5-80.7 18.49-112.06 20.99-31.36 110.65-112.09 166.03-109.34 55.37 2.74 79.72 18.96 111.85 54.65 0 0 22.96-35.12 14.93-103.68-8.03-68.56-58.61-58.94-109.96-30.84zm619.02 342.81c-3.44 20.23-6.87 36.12-9.22 40.96-4.48 9.18-30.74 15.65-43.03 12.7-7.44-58.75-45.7-111.13-74.99-147.21 0 0-11.52-76.97-23.44-92.28-11.7-15.03-27.48-10.06-28.07-9.87 0.11-8.23 1.48-16.54 4.5-24.93 14.98-41.66 64.43 57.16 79.33 101.08 14.91 43.93 36.75 95.42 53.34 123.3 15.39 25.85 33.12 38.91 41.58-3.75z"/>
		<path id="&lt;Path&gt;" class="s10" d="m721.08 754.77c0 0 1.62 27.23 11.01 48.51 9.38 21.28-1.29 39.65-44.64 10.93-43.35-28.71-77.05-106.5-95.38-168.94-18.33-62.45-46.5-106.05-82.45-102.79-35.96 3.26-60.82 80.88-101.12 117.87-40.31 37-126.69-31.93-126.69-31.93 0 0 14.04 35.8 1.88 63.86-12.16 28.06-85.18 5.22-100.12-62.93 0 0-15.13 33.9-91.76 0.49-76.63-33.4-93.93-76.13-88.65-102.35-4.92 16.11-4.66 36.56 4.98 71.07 18.52 66.23 52.66 124 90.72 154.47 38.07 30.47 70.26 32.14 70.26 32.14-1.63 3.12-3.89 6.74-6.5 10.64 31.3-40.4 71.32-79.44 81.39-77.8 13.1 2.15 46.97-2.11 52.26-4.02 5.29-1.92 7.75 5.02-15.08 33.25-22.8 28.19-148.9 94.01-143.48 84.48-5.41 8.41-9.69 16.23-10.96 22.18-3.72 17.41-0.92 67.12-4.19 97.48-3.27 30.36-14.93 30.9-15.04 32.61-0.11 1.72 2.59 13.09 19.48 24.95 16.88 11.87 33.45 2.18 33.45 2.18-8.59-7.02-8.27-18.62-8.27-18.62 46.96 12.96 52.63-14.67 52.63-14.67-20.92-2.65-30.01-35.11-30.01-35.11 15.62 4.89 30.86-10.91 30.86-10.91 0 0-12.51-6.41-18.49-13.69-5.99-7.28-2.04-21.67-2.04-21.67-33.91-21.58-35.2-47.94-22.43-52.27 12.77-4.34 88.55-37.3 109.26-51.03 20.7-13.73 33.95-38.7 33.95-38.7 11.79-9.14 32.38-21.15 73-56.4 40.63-35.26 102.65-75.15 108.34-76.5 5.68-1.35 14.59-5.94 30.79 23.11 16.2 29.04 26.06 115.81 26.06 115.81 58.42 68.4 141.41 57.01 141.41 57.01 70.23 45.91 103.92 24.42 103.92 24.42 0 0 12.45 60.24 9 86.71-3.44 26.48-28.7 17.51-22.06 41.2 6.64 23.69 40.07 32.75 40.07 32.75 0.61-15.89 12.58-21.14 12.58-21.14l9.58 4.93c12.15-14.71 10.24-64.79 10.24-64.79l-8.61-6.59c-22.42-39.36-34.26-102.14-34.26-102.14-25.5 1.35-48.74-18.68-48.74-18.68 9.3-11.38 14.68-25.19 17.68-38.88-5.99 19.15-37.19 15.65-53.83-0.5z"/>
		<path id="&lt;Path&gt;" class="s11" d="m819.28 681.06c2.6-5.34 6.5-24.13 10.3-47.38-5.48 25.98-15.82 43.08-32.39 16.22-21.04-34.09-64.66-157.94-86.62-217.51-21.96-59.57-33.59-80.99-46.48-70.64-12.9 10.36-30.67 51.84-18.46 109.05 12.21 57.2-145.73 52.2-141.78 12.8-0.66 10.68 0.33 18.09 0.89 21.19 1.42 0.2 2.75 0.44 4.28 0.61 46.17 5.16 55.99 23.03 76.18 42 20.19 18.97 34.64 55 34.64 55 0 0 31.18 17.54 45.57 47.76 14.38 30.22 1.55 38.85 1.55 38.85 16.33 23.68 40.91 42.93 57.25 50.03 16.33 7.09 28.8-25.62 19.95-68.43-8.84-42.82-50.23-102.36-65.04-129.16-14.81-26.8-21.44-55.07-10.94-39.25-1.16-1.91-2.37-3.94-3.52-5.98-17.89-31.69-14.96-51.81-14.96-51.81 0 0 16.2-5.45 28.12 9.86 11.92 15.31 23.44 92.28 23.44 92.28 0 0 67.36 79.1 74.99 147.21 12.29 2.95 38.55-3.52 43.03-12.7z"/>
		<path id="&lt;Path&gt;" class="s12" d="m426.21 222.68c-95.36-36.78-126.56-51.9-99.56-58.08 2.48-0.56 4.6-1.25 6.57-1.98-33.96 0.18-66.17 6.66-88.11 14.04q-0.94 0.32-1.89 0.65c38.41-30.13 7.33-18.92-27.81 10.43-10.22 8.53-17.02 14.91-19.59 17.47-4.09 4.08-7.28 9.04-9.72 13.74-4.36 8.39-6.25 15.9-6.25 15.9 0 0 24.32-23.76 33.04-28.37 8.73-4.61 31.15-7.66 52.03-8.42 20.89-0.77 77.47 0.7 77.47 0.7-13.46 13.34-78.21 47.17-106 55.6-27.79 8.43-55.28 15.62-57.69 15.46-2.41-0.15-9.68-15-15.88-14.11-6.19 0.89-67.73 13.23-64.73 2.39-2.12 7.02-3.82 13.82-3.82 13.82 9.41-3.67 14.27 13.85 15.73 13.78 1.46-0.07 12.46-0.32 32.21-3.55 19.75-3.24 27.99-8.2 26.41-6.36-1.57 1.83-32.71 23.71-38.13 22.71-5.43-1-17.74-7.94-19.05-7.54-1.32 0.4-7.73 4.51-24.03 16.85-16.31 12.34-46.24 18.15-56.13 14.76 6.59 7.83 27.93 19.09 27.93 19.09 0 0 4.85 26.27 10.91 25.8 6.06-0.47 48.4-35.61 56.37-38.97 7.97-3.35 60.76-7.24 64.33-9.16 3.57-1.92 18.66-22.04 18.66-22.04 51.35-28.1 101.93-37.72 109.96 30.84q0.75 6.45 1.16 12.51c0.7 3.24 0.93 6.92 0.49 11.17 0.1 5.18-0.01 9.99-0.22 14.63 2.67-11.2 9.38-45.81 18.26-72.88 14.5-44.17 37.55-60.75 65-55.74 27.45 5.02 49.3 76.2-18.78 139.6-68.07 63.4-70.36 36.12-67.23 14.36-4.8 26.51-13.61 40.03-13.61 40.03-27.06-30.06-48.68-46.27-87.9-52.29 54.03 12.47 80.09 66.9 90.28 88.61 10.21 21.77-20.82 15.44-74.52 39.94-53.7 24.5-69.69 38.53-77.71 62.56-8.02 24.02-4.25 45.37-1.05 42.56 3.2-2.81 28.27-19.43 47.65-13.56 8.05 2.43 16.31-5.78 23.22-16.22-17.27 7.7-27.56 12.79-27.56 12.79 0 0-7.98-3.1-7.76-6.53 0.23-3.43 2.07-31.74 19.27-51.29 17.21-19.55 38.9-31.92 38.9-31.92 5.35 13.7 37.8 51.12 106.84 16 49.25-25.06 113.37-100.67 131.69-180.09 5.07-38.77 1.03-96.29-59.65-119.69z"/>
		<path id="&lt;Path&gt;" class="s13" d="m42.15 293.56c3.5-0.35 19.26-3.35 24.75 6.08 5.48 9.43 3.82 8.98-1.8 13.48-5.62 4.5-17.47 10.31-28.61 10.33-11.14 0.02-6.76-13.37-3.19-19.29 3.57-5.92 6.9-10.4 8.85-10.6z"/>
		<path id="&lt;Path&gt;" class="s14" d="m60.78 317.54c1.86-4.36 8.92-9.85 16.05-8.6 7.13 1.26 2.49 1.77-0.29 2.85-12.32 4.75-16.61 7.74-15.76 5.75z"/>
		<path id="&lt;Path&gt;" class="s15" d="m103.7 243.63c1.32-1.08 10.03 1.14 21.44 3.46q2.94 0.6 6.08 1.19 1.83 0.34 3.7 0.66c7.28 1.25 15.04 2.25 22.38 2.37 23.39 0.39-25.4 10.12-44.35 11.16-18.94 1.04-14.85-4.54-13.96-7.26 0.89-2.72 4.71-11.58 4.71-11.58z"/>
		<path id="&lt;Path&gt;" class="s16" d="m109.77 286.82c-1.66 0.43 16.38 11.24 20.72 11.68 4.33 0.44 35.84-22.83 25.45-19.24-10.39 3.59-44.2 7.04-46.17 7.56z"/>
		<path id="&lt;Path&gt;" class="s17" d="m114.49 285.48l-4.49 0.22c0 0 1.32-15.25 15.61-16.48 14.29-1.22 43.01 6.57 43.01 6.57 0 0-27.05 8.18-54.13 9.69z"/>
		<path id="&lt;Path&gt;" class="s18" d="m85.57 357.95c0 0-0.87-44.02 18.65-61.16 19.53-17.14 46.59 26.89 46.59 26.89 0 0-12.6-3.25-24.32 4.81-11.72 8.07-40.92 29.46-40.92 29.46z"/>
		<path id="&lt;Path&gt;" class="s19" d="m190.82 319.33c0 0 2.33-41.45-0.53-46.37-2.87-4.92 22.19-10.25 24.98-5.01 2.78 5.24 2.86 24.79 2.86 24.79l-8.65 4.55c0 0-10.1 14.63-18.66 22.04z"/>
		<path id="&lt;Path&gt;" class="s20" d="m297.77 197.94c24.99 0.63 9.85-34.84-19.79-29.78-29.63 5.05-29.82 0.22-79.55 48.59 0 0 8.55-7.37 14.46-10.27 5.92-2.9 31.35-9.9 84.88-8.54z"/>
		<path id="&lt;Path&gt;" class="s21" d="m180.88 233.85c-12.55 14.25-3.97 18.04 28.61 7.03 32.59-11.02 89.87-41.69 111.06-42.6 0 0-39.84-1.27-72.24 1.06-32.39 2.33-37.01 7.83-39.43 9.48-2.41 1.65-28 25.03-28 25.03z"/>
		<path id="&lt;Path&gt;" class="s22" d="m335.25 204.54c0 0-68.4 43.7-114.93 54.57 0 0 17.23 10.48 53.86 3.51 36.63-6.97 61.07-58.08 61.07-58.08z"/>
		<path id="&lt;Path&gt;" class="s23" d="m304.51 431.81c31.58 30.9 64.37 69.64 64.37 69.64 0 0 1.06-55.91-11.19-66.18-12.25-10.28-46.12-18.84-46.12-18.84z"/>
		<path id="&lt;Path&gt;" class="s24" d="m153.61 613.19c0 0 8.57-27.43 17.5-30.73 8.94-3.29 28.31 16.71 28.31 16.71 0 0-23.65-2.19-45.81 14.02z"/>
		<path id="&lt;Path&gt;" class="s25" d="m182.03 631.78c1.74 34.19 40.65 67.48 63.56 76.81 0 0-36.83 21.66-76.47 76.58 0 0-43.62-3.46-85.42-45.92-41.79-42.46 42.05 4.34 76.76 6.92 34.72 2.58 34.16-48.49 26.41-73.22-7.76-24.72-4.84-41.17-4.84-41.17z"/>
		<path id="&lt;Path&gt;" class="s26" d="m281.81 628.42c12.25 30.19 23.15 51.25 44.83 50.72 0 0-5.78 19.34-8.69 34.16-2.9 14.83-4.44 23.66-12.04 41.15 0 0 29.78-19.17 73-56.4 43.23-37.24 28.29-21.09-21.45-25.95-49.75-4.85-75.65-43.68-75.65-43.68z"/>
		<path id="&lt;Path&gt;" class="s27" d="m487.25 621.55c42.93-22.83 76.33-32.55 89.41-18.8 13.09 13.74 30.92 92.09 37.62 113.2 6.7 21.1-82.8-44.54-96.24-71.29-16.49-32.84-30.79-23.11-30.79-23.11z"/>
		<path id="&lt;Path&gt;" class="s28" d="m544.1 760.47c16.05 11.38 52.78-0.44 60.77-7.45 7.99-7.02 8.16-36.08 11.51-27.89 3.34 8.18 34.91 69.02 69.13 92.35 0 0-37.22 6.19-83.32-13.74-36.12-15.61-58.09-43.27-58.09-43.27z"/>
		<path id="&lt;Path&gt;" class="s29" d="m757.23 794.15c0 0-23.37-14.87-29.74-31.11 0 0 48.74 11.67 50.67-33.47 0 0 1.27 39.66-20.93 64.58z"/>
		<path id="&lt;Path&gt;" class="s30" d="m174.8 942.72c15.62 4.89 30.86-10.91 30.86-10.91 0 0-12.51-6.41-18.49-13.69-5.99-7.28-2.04-21.67-2.04-21.67-14.39-9.16-22.86-19.16-26.92-27.99 6.48 18.79 23.98 71.48 15.65 68.82-10.12-3.25-19.79-18.41-19.79-18.41 5.29 12.94 13.78 41.27 13.78 41.27-8.9 22.68-31.79 16.99-31.79 16.99 2.6-15.01-4.1-46.13-4.1-46.13-0.6 29.03-9.53 47.18-9.53 47.18l5.99 7.17c0 0-6.62 12.49-20.9-1.36-0.11 1.72 2.59 13.09 19.48 24.95 16.88 11.87 33.45 2.18 33.45 2.18-8.59-7.02-8.27-18.62-8.27-18.62 46.96 12.96 52.63-14.67 52.63-14.67-20.92-2.65-30.01-35.11-30.01-35.11z"/>
		<path id="&lt;Path&gt;" class="s31" d="m848.84 921.56l-8.61-6.59c-22.42-39.36-34.26-102.14-34.26-102.14 0 0-14.86 37.77-5.32 51.97 9.53 14.21 40.64 60.36 33.1 76.88-7.53 16.52-15.96 17.04-15.96 17.04 8.49-17.96 3.07-34.03 3.07-34.03 3.13 24.75-11.41 39.74-11.41 39.74-13 4.53-20.8-1.36-20.8-1.36 17.57-8.54 17.21-29.45 17.21-29.45-8.94 21.59-23.6 25.16-23.6 25.16 0 0-4.49 2.93-5.76-1.59-1.45 2.89-1.77 6.75-0.13 12.62 6.64 23.69 40.07 32.75 40.07 32.75 0.61-15.89 12.58-21.14 12.58-21.14l9.58 4.93c12.15-14.71 10.24-64.79 10.24-64.79z"/>
		<path id="&lt;Path&gt;" class="s32" d="m704.52 671c-16.66-15.29-79.08-61.99-93.12-97.78-14.03-35.8-12.72-55.9-31.96-58.07-6.48-0.73-13.82-1.54-20.74-2.3q-4.59-0.37-9.02-0.99c-9.46-1.03-16.53-1.8-16.53-1.8 26.44 7.9 36 22.25 52.05 37.34 20.19 18.97 34.64 55 34.64 55 0 0 31.18 17.54 45.57 47.76 14.38 30.22 1.55 38.85 1.55 38.85 0 0 25.06 28.55 31.83 30.28 6.78 1.74 22.39-32.99 5.73-48.29z"/>
		<path id="&lt;Path&gt;" class="s33" d="m677.82 454.27c8.39 10.77 16.57 52.05 20.69 75.58 3.28-14.78 13.07-62.24 9.54-87.62-4.22-30.32-26.28-74.58-32.4-75.42-6.12-0.83-24.94 25.94-25.95 77.6 0 0 16.2-5.45 28.12 9.86z"/>
		<path id="&lt;Path&gt;" class="s34" d="m819.28 681.06c0.25-0.52 0.52-1.21 0.8-1.98q0.07-0.18 0.14-0.38 0.39-1.15 0.82-2.6 0.1-0.33 0.19-0.68 0.42-1.47 0.86-3.2 0.11-0.44 0.22-0.89 0.37-1.49 0.75-3.14 0.15-0.63 0.3-1.29 0.4-1.78 0.81-3.73 0.2-0.95 0.4-1.93 0.4-1.89 0.79-3.91 0.27-1.33 0.53-2.72 0.21-1.09 0.42-2.22 0.48-2.55 0.96-5.24 0.14-0.77 0.28-1.56 0.65-3.64 1.3-7.51c0.25-1.53 0.49-2.96 0.73-4.4 2.72-16.72 5.4-35.82 7.49-53.96 0.37-3.25 0.76-6.74 1.16-10.4-8.6 24.73-21.6 37.43-31.36 37.72-8.39 0.92-11.81-8.31-19.83-34.99 3.64 18.37 2.87 40.28 0.23 58.91-3.88 27.37-11.8 47.68-15.73 39.36 0 0 0.04 0.21 0.12 0.55 2.14 7.68 3.74 15.35 4.59 22.89 12.29 2.95 38.55-3.52 43.03-12.7z"/>
		<path id="&lt;Path&gt;" class="s35" d="m106.15 419.33c37.5-29.4 103.94-3.77 150.58 18.84 30.14 14.61 41.65 17.98 41.54 12.72-2.72-5.05-5.89-10.48-9.57-16.09q-1.52-1.99-2.91-4.25c-14.89-21.38-37.07-43.62-69.18-51.03-7.34-1.12-15.23-1.93-23.95-2.36-55.38-2.75-145.04 77.98-166.03 109.34-10.72 16.02-20.13 27.65-24.32 44q0.4-1.53 0.85-3.01c-5.28 26.22 12.02 68.95 88.65 102.35 10.65 4.65 20.08 7.95 28.48 10.27 16.94-33.38-51.64-191.39-14.14-220.78z"/>
		<path id="&lt;Compound Path&gt;" class="s36" d="m683.08 699.32c9.23 3.83 18.93 20.18 18.93 20.18 0 0 28.88-26.97 22.86-40.28-6.02-13.31-91.54-67.47-91.54-67.47 0 0 17.5 20.66 19.55 25.53 2.05 4.87 27.19 19 27.19 19l-23.06-9.68c0 0 16.68 8.4 22.79 17.2 6.1 8.79 19.94 24.33 30.57 29.76 0 0-14.94-2.53-26.69-20.04 0 0-0.96 8.17 0.13 14.57 1.09 6.4 17.2 16.92 17.2 16.92zm-23.3-362.42c0 0 5.13-6.77 16.84-3.1 0 0-12.81-9.15-26.91-8.46-14.09 0.7-26 17.37-26 17.37 0 0 2.22-14.23 15.98-19.63 0 0-25.87 3-50.02 26.62-24.15 23.62-17.53 70.88-17.53 70.88 0 0-14.51-25.17-5.8-44.95 0 0-10.76 11.57-13.65 31.09-2.88 19.51 6.36 46.28 6.36 46.28 0 0-21.7-18.95-13.78-51.33 0 0-15.62 21.64-10.53 57.5 4.68 32.92 12.62 50.96 20.44 60.38-19.85-17.87-43.02-16.1-43.02-16.1 21.62-4.62 32.15 5.54 32.15 5.54-13.89-18.13-33.83-19.42-33.83-19.42-8.02 7.45-25.29 11.48-25.29 11.48 0 0 27.99-13.25 12.41-12.11-15.58 1.14-45.14 15.37-45.14 15.37 16.23-14.45 28.85-16.43 28.85-16.43-49.12-2.98-114.77 27.42-114.77 27.42-44.09 26.64-76.35 20.96-76.35 20.96-22.73 8.73-26.26 26.19-26.26 26.19 0.59-9.01 9.69-19.83 9.69-19.83-25.63 6.73-42.1 31.5-42.1 31.5 0 0-13.7 1.29-17.76-5.03-14.27-22.25 4.91-41.15 4.91-41.15-25.94 19.84-32.7 51.18-29.51 61.72 3.19 10.55 31.49 15.83 31.49 15.83l23.2-12.48c0 0-4.45 2.29-12.23 2.65-7.77 0.35 7.94-12.84 18.67-15.58 10.73-2.75 2.64 5.77 2.64 5.77 0 0 93.79-44.93 104.55-48.11 10.76-3.17-4.34 10.49-4.34 10.49 0 0 28.97-18.36 34.12-18.14 5.16 0.21-7 8.28-7 8.28l23.4-8.82c0 0-3.06-2.57 7.35-7.06 10.41-4.49 74.91-16.22 104.29-14.31 27.34 1.78 42.41 14.13 44.37 15.83l0.23 0.21c0 0 9.31 5.82 25.3 23.17 0 0-24.24-34.52-20.69-69.17 3.55-34.65 5.9-36.11 7.48-15.66 0 0-1.43-37.56 16.2-70.33 17.64-32.76 45.5-54.77 81.26-52.96 0 0 13.7 0.51 22.49 5.08 0 0-18.37-17.05-32.16-7.45zm237.64 122.18c-3.69-8.43-12.42-12-24.41-11.49-11.98 0.51-45.05 11.35-40.26 87.71 4.79 76.35 54.41 96.99 93.11 97.81 38.71 0.83 36.6-21.44 39.8-35.76 3.19-14.33 10.57-23.54 19.84-7.11 9.26 16.43-4.53 64.62 9.61 65.65 14.15 1.03 23.07-21.86 30.79-46.23 7.72-24.36-3.57-44.48 3.75-37.77 7.31 6.71 12.84 30.89 12.84 30.89 8.45-25.51 3.18-68.7-17.8-63.93-20.98 4.77-24.59 15.52-12.32 30.53 12.27 15.01 18.71 20.27 11.09 28.17-7.62 7.91-31.35 0.22-30.12-8.74 1.23-8.96 10.03-44.89-3.61-43.84-13.63 1.05-32.11 41.84-45.79 43.53-13.67 1.7-13.64-3.79-7.01-16.28 6.63-12.49 24.54-34.58 10.37-55.2-14.16-20.62-36.38-31.44-36.38-31.44 68.53 23.84 49.85 47.82 49.85 47.82 9.13-6.19 24.67-21.65 10.29-43.9-14.38-22.26-56.99-30.95-56.99-30.95 42.97 0.21 48.56-24.83 48.56-24.83-27.94 22.3-99.62-5.28-83.14 1.99 19.66 8.68 21.62 31.79 17.93 23.37zm-627.34-288.98c5.13 0.55-3.19 15.94-3.19 15.94 0 0 13.27-15.28 25.13-18.82 11.86-3.53 2.19 5.96 2.19 5.96 0 0 15.21-8.7 47.14-9.64 31.93-0.94 64.47 10.44 64.47 10.44 0 0-13.02-20.23-30.37-21.57-17.35-1.35-54.53 7.43-54.53 7.43 15.82-18.13 37.17-15.24 37.17-15.24-21.58-8.96-38.28-11.43-51.12-10.55-27.09 15.75-49.98 32.2-67.92 46.55 16.32-8.27 27.75-10.85 31.03-10.5zm-114.65 57.29c13.25-16.82 28.33-31.78 44.47-45-5.34-34.01 35.58-49.64 35.58-49.64 0 0-32.13-5.97-63.64 11.79-31.52 17.76-22.89 60.53-22.89 60.53-25.61-26.65 9.68-59.45 9.68-59.45-50.67 34.17-45.49 40.54-27.3 55.5 18.19 14.97 9.07 19.54 9.07 19.54 0 0-24.15-6.09-27.85-5.47-3.7 0.62-1.35 7.44-1.35 7.44 0 0-12.73-9.44-26.45 2.81-13.72 12.24-8.88 40.54-8.88 40.54-2.49-21.26 28.03-40.38 28.03-40.38l7.91 0.95c13.1 26.91 32.86 37.67 32.86 37.67 0 0-12.2-14.36-13.31-27.14-1.1-12.77 6.12-8 6.12-8 11-16.72 13.04 4.73 13.04 4.73 0.92-1.32 1.77-2.45 2.63-3.57q-0.3 0.37-0.59 0.73c0 0 0.96-1.55 2.87-3.58zm94.08-95.23c-32.11 8.61-45.8 41.34-48.78 49.57 8.43-6.86 17.12-13.24 25.96-19.2 7.68-19.73 22.82-30.37 22.82-30.37zm-14.19 24.72c9.35-5.95 15.05 6.02 34.81-3.64 7.06-3.45 22.14-27.07 31.13-30.93-25.03-11.6-51.18 15.19-65.94 34.57z"/>
		<path id="&lt;Path&gt;" class="s37" d="m281.19 747.24c22.83-28.23 20.37-35.17 15.08-33.25-5.29 1.91-39.16 6.17-52.26 4.02-10.07-1.64-50.09 37.4-81.39 77.8-7.23 10.83-17.22 23.97-24.91 35.91-5.42 9.52 120.68-56.29 143.48-84.48z"/>
		<path id="&lt;Path&gt;" class="s38" d="m192.56 603.67c9.81-10.03 84.37 19.27 93.15 40.51 8.77 21.24-3.47 70.4-44.23 54.83-40.76-15.57-74.29-69.43-48.92-95.34z"/>
		<path id="&lt;Path&gt;" class="s39" d="m634.16 673.55c-20.01 78.88 29.78 125.97 64.72 146.99 34.93 21.02 45.47 2.73 27.21-33.6-16.06-31.94-82.95-148.78-91.93-113.39z"/>
		<g id="&lt;Group&gt;" style="opacity: .7;mix-blend-mode: multiply">
			<path id="&lt;Path&gt;" class="s40" d="m85.51 233.02c-7.72 8.19-9.34 21.29-9.63 28.25 1.94-19.29 28.02-35.66 28.02-35.66l7.91 0.94c13.1 26.91 32.86 37.67 32.86 37.67 0 0-12.2-14.36-13.31-27.14-1.11-12.77 6.12-8 6.12-8 10.99-16.72 13.04 4.73 13.04 4.73 0.91-1.32 1.77-2.45 2.62-3.57q-0.29 0.37-0.58 0.73c0 0 0.96-1.55 2.86-3.57 10.12-12.85 21.33-24.6 33.24-35.33l-10.11 2.27c0 0 1.77-14.79 24-40.9 7.92-9.3 16.93-16.58 23.87-21.55q-2.75-0.13-6.15-0.08c-28.69 16.67-52.34 76-52.34 76 0 0-3.82-30.61 19.75-55.34 7.61-7.97 15.29-14.87 20.73-19.79-5.31 0.67-11.11 1.81-17.17 3.65-44.14 22.98-30.62 77.96-30.62 77.96 0 0-5.92 4.93-11.67-9.22-16.03-16.67-8.21-35.76-0.11-47.7-5.25 7.2-14.26 19.96-15.62 24.71-1.95 6.76 14.8 39.94 14.8 39.94 0 0-9.41-1.8-15.02-0.98-5.61 0.82-0.74 25.36-6.92 21.08-6.18-4.28-14.88-19.48-14.88-19.48 0 0-14.78-1.18-25.69 10.38z"/>
			<path id="&lt;Path&gt;" class="s40" d="m351.46 142.03c-7.37-2.74-14.13-4.68-20.32-5.97-43.06 13.43-64.25 49.98-64.25 49.98 0 0 13.27-15.28 25.13-18.82 7.22-2.15 6.45 0.53 4.75 2.95 10.91-10.05 34.78-29.55 54.69-28.14z"/>
			<path id="&lt;Path&gt;" class="s40" d="m392.49 159.69c-5.17 1.53-8.83 4.96-11.11 7.83 11.27 2.31 19.87 4.96 23.06 6 0.11-0.39 0.19-0.74 0.28-1.12-1.91-2.63-6.26-8.12-12.23-12.71z"/>
			<path id="&lt;Path&gt;" class="s40" d="m306.97 134.05c-27.09 15.75-49.98 32.21-67.92 46.55 8.35-4.23 15.4-6.95 20.75-8.58 10.93-8.65 43.72-29.04 66.93-36.79-7.41-1.24-14-1.57-19.76-1.18z"/>
			<path id="&lt;Path&gt;" class="s40" d="m375.45 152.41c-17.36-1.34-54.53 7.43-54.53 7.43 15.82-18.13 37.16-15.23 37.16-15.23-1.17-0.49-2.27-0.88-3.41-1.33-24.92-0.07-40.94 15.73-48.31 25.28 7.79-2.25 19.38-4.56 34.99-5.02 5.13-0.15 10.27 0.04 15.3 0.43 5.45-3.75 14.88-8.52 27.98-9.1-2.88-1.3-5.95-2.21-9.18-2.46z"/>
			<path id="&lt;Path&gt;" class="s40" d="m436.99 512.56c0.84-2.89 15.33-17.11 22.59-24.09q-4.21 0.42-8.45 1.04c-10.76 4.83-28.96 26.96-28.96 26.96l5.09-22.2q-4.44 1.1-8.73 2.3l-10.42 24.23-18.46 5.69 8.41-23.54q-1.16 0.4-2.29 0.79l-10.54 24.4-22 7.18 12.79-24.09c-5.96 2.45-9.48 4.07-9.48 4.07q-0.25 0.14-0.49 0.28l-19.49 24.47-71.94 30.2 25.1-33.51c-2.91 0.05-5.19-0.05-6.79-0.18-7.04 12.31-26.98 45.92-29.96 37.24-1.22-3.56-0.38-8.27 1.23-12.94 1.42-8.64 9.42-18.24 9.42-18.24l-34.82 38.65c0 0 10.68-19.89 19.76-32.27-3.58 2.09-6.88 4.41-9.82 6.79-6.54 12.71-21.16 40.12-30.05 49.3 1.2 0.26 1.96 0.41 1.96 0.41l23.2-12.49c0 0-4.45 2.29-12.23 2.65-7.77 0.35 7.94-12.83 18.67-15.58 10.73-2.75 2.64 5.77 2.64 5.77 0 0 93.79-44.93 104.55-48.1 10.76-3.18-4.34 10.48-4.34 10.48 0 0 28.97-18.36 34.12-18.14 5.15 0.22-7 8.28-7 8.28l23.4-8.82c0 0-3.06-2.56 7.35-7.05 10.41-4.49 74.91-16.23 104.29-14.32 27.34 1.78 42.41 14.13 44.37 15.83l0.23 0.21c0 0 9.31 5.82 25.3 23.18 0 0-24.24-34.53-20.69-69.18 3.55-34.65 5.9-36.11 7.48-15.66 0 0-1.43-37.56 16.2-70.32 17.64-32.77 45.5-54.77 81.26-52.97 0 0 11.03 0.42 19.65 3.81q-1.12-1.36-2.15-2.59c-6.41-4.37-17.84-10.09-27.17-3.59 0 0 5.12-6.77 16.84-3.1 0 0-2.11-1.49-5.51-3.22-12.38 2.83-35.18 12.44-29.22 5.83 4.51-5.01 11.97-8.48 16.68-10.31-2.6-0.53-5.35-0.84-8.16-0.76-7.29 5.97-35.02 28.55-36.07 27.36-0.88-1.01 2.12-15.27 3.78-22.74-3.4 1.58-7.02 3.48-10.8 5.84-5.15 13.48-16.58 42.94-18.66 44.3-2.22 1.45 4.7-26.08 7.25-36q-1.85 1.55-3.7 3.25c-0.3 1.56-15.19 78.45-20.07 73.23-0.37-0.39-0.7-1.08-1.01-1.9-3.1-6.15-12.1-26.46-4.79-43.05 0 0-3.39 3.65-6.87 10.29-0.45 1.93-0.89 4.01-1.32 6.41-4.39 24.47 10.77 49.57 10.77 49.57 0 0-7.86 21.46-12.95 17.03-3.66-3.17-14.65-21.46-20.56-31.52q-0.9 4.58-1.34 9.88c4.32 6.9 10.12 15.79 14.79 21.61 8.57 10.68 15.68 50.33 15.68 50.33-4.49-4.34-17.23-17.45-25.12-25.61 4.48 17.94 10.15 29.17 15.76 35.93-4.79-4.3-9.76-7.45-14.56-9.77-8.99-0.42-25.6-1.55-28.37-4.38-0.6-0.61-0.42-1.27 0.2-1.96q-0.29 0.01-0.29 0.01 0.16-0.03 0.32-0.05c2.42-2.61 11.94-5.57 17.52-7.12q-2.4-1.41-4.68-2.45l-22.88 11.36-46.06 4.97 45.53-19.34c0.54-0.77 0.52-1.39-0.47-1.7-12.57 5.19-65.44 26.84-64.45 23.44z"/>
			<path id="&lt;Path&gt;" class="s41" d="m301.26 122.31c-3.43-1.59-6.89-2.4-10.33-2.67l-24.51 30.56c9.41-4.75 25.7-23.96 34.84-27.89z"/>
			<path id="&lt;Path&gt;" class="s40" d="m259.23 153.88c5.6-6.48 19.68-29.1 25.5-34.06-19.44 2.39-37.89 21.94-49.41 37.06 10.2-6.49 13.61 2.42 23.91-3z"/>
			<path id="&lt;Path&gt;" class="s40" d="m701.05 717.72c0.57 1.13 0.96 1.78 0.96 1.78 0 0 28.88-26.97 22.86-40.28-6.02-13.31-91.54-67.47-91.54-67.47 0 0 0.98 1.16 2.48 2.96 12.28 8.56 34.04 23.93 30.81 23.25-2.45-0.51-11.77-5.24-19.68-9.4 2.87 3.75 5.26 7.11 5.94 8.72 0.29 0.68 1.06 1.55 2.11 2.53 11.29 4.99 25.35 11.2 30.86 13.62 9.84 4.3 33.63 25.87 33.63 25.87l-36.48-11.21q1.67 2.14 3.65 4.46c12.91 6.5 28.21 14.67 29.97 17.68 3.1 5.28 0.5 12.23-8.65 10.5-5.87-1.11-17.25-11.39-24.65-18.62 0.03 1.98 0.16 4.05 0.49 5.98 0.05 0.3 0.17 0.62 0.28 0.94 19.31 9.38 27.34 22.1 16.96 28.69z"/>
			<path id="&lt;Path&gt;" class="s41" d="m75.83 264.33c0 1.03 0.03 1.65 0.03 1.65-0.06-0.55-0.01-1.1-0.03-1.65z"/>
			<path id="&lt;Path&gt;" class="s40" d="m218.53 168.28c2.72-1.93 5.42-3.9 8.16-5.75 6.22-16 17.36-26.02 21.35-29.24-13.96 10.67-23.48 24.16-29.51 34.99z"/>
			<path id="&lt;Path&gt;" class="s40" d="m1045.93 585.07c0.28-3.13 0.43-6.28 0.4-9.42-6.23-21.42-27.71-32.89-36.6-27-2.34 1.54-3.62 4.22-4.26 7.05q0.35 3.05 2.11 6.51c0.66-14.32 35.07-19.03 38.35 22.86z"/>
			<path id="&lt;Path&gt;" class="s41" d="m956.97 443.62c-0.1 0.14-0.22 0.24-0.32 0.38q0.16-0.19 0.32-0.38z"/>
			<path id="&lt;Path&gt;" class="s40" d="m912.67 609.19c3.08-11 21.55-56.52 22.46-63.94 0.91-7.41-28.26 70.23-35.37 57.07-7.11-13.17 7.84-70.76 19.59-76.03 11.76-5.26 16.29 11.18 16.29 11.18 0 0 11.53-34.67-20.63-27.13-32.16 7.54-50.49 77.63-50.49 77.63 0 0-23.14-11.09-27.23-41.4-4.1-30.3 15.38-44.43 36.57-58.98 9.88-6.79 17.6-6.96 21.96-5.97-0.09-0.06-0.15-0.09-0.25-0.16-10.5-7.09-59.24 9.35-63.15 32.4-0.24 6.51-0.17 13.61 0.33 21.44 4.79 76.35 54.41 96.99 93.11 97.81 38.7 0.83 36.6-21.44 39.79-35.76 3.2-14.33 10.58-23.54 19.84-7.11 9.27 16.43-4.52 64.62 9.62 65.65 10.36 0.76 17.91-11.33 24.24-27.42-15.34 25.61-24.1-17.79-28.3-29.26-4.21-11.47-14.44-29.39-5.75-37.41 8.69-8.01 8.16 7 8.33 17.64 0.04 2.9 0.21 4.39 0.43 5.05 0.82-4.5 2-10.84 2.68-17.15 0.12-7.54-0.66-15.17-4.35-15.19-7.32-0.05-22.69 31.03-23.63 28.82-0.92-2.2 3.76-21.65 12.03-30.94-5.06 4.67-10.42 11.87-15.76 18.85-3.81 11.78-1.51 23.59-5.82 36.44-6.14 18.34-49.63 14.86-46.54 3.87z"/>
			<path id="&lt;Path&gt;" class="s40" d="m1042.72 554.67q0.66 1.12 1.27 2.33-0.72-2.77-1.67-5.24c-2.07-4.1-9.58-12.06-20.82-12.08q-9.36 2.66-13.27 7.11c0.33-0.14 0.77-0.39 1.36-0.85 5.44-4.16 24.37-5.73 33.13 8.73z"/>
			<path id="&lt;Path&gt;" class="s40" d="m215.47 570.93c-0.67-0.53-1.26-1.13-1.71-1.84q-0.11-0.18-0.2-0.36c-9.1 8.21-18.62 15.71-24.55 20.23 0.05 0.22 0.09 0.49 0.15 0.71 0.29 0.95 0.84 1.85 1.5 2.71 6.26-4.5 16.16-12.19 24.81-21.45z"/>
			<path id="&lt;Path&gt;" class="s40" d="m1031.8 539.18c-1.82-0.66-3.85-0.75-6.02-0.43q3.15 0.24 6.02 0.43z"/>
			<path id="&lt;Path&gt;" class="s41" d="m895.82 481.62c5.53 3.67 4.91 1.12 0 0z"/>
			<path id="&lt;Path&gt;" class="s40" d="m201.71 595.43c0 0 12.95-4.13 27.17-21.2-1.66 0.01-3.89-0.08-6.2-0.47-7.25 9.92-20.97 21.67-20.97 21.67z"/>
			<path id="&lt;Path&gt;" class="s40" d="m892.42 440.56l4.41 5.03c0 0 37.26 16.55 55.72 2.13-16.76 10.01-60.13-7.16-60.13-7.16z"/>
			<path id="&lt;Path&gt;" class="s40" d="m902.24 461.66c53.63 5.04 69.74 32.42 74.56 47.36 0.42-5.73-1.05-12.26-5.74-19.52-3.46-5.35-8.56-9.89-14.28-13.73-44.26-24.43-54.54-14.11-54.54-14.11z"/>
			<path id="&lt;Path&gt;" class="s41" d="m953.05 447.39c0.33-0.27 0.67-0.54 0.98-0.82-0.46 0.43-0.99 0.76-1.48 1.15q0.25-0.16 0.5-0.33z"/>
			<path id="&lt;Path&gt;" class="s41" d="m901.29 466.33l8.62 9.82c29.02-7.49 64.59 30.76 62.01 46.36q1.3-1.92 2.33-4.09c-4.79-40.74-72.96-52.09-72.96-52.09z"/>
		</g>
		<path id="&lt;Path&gt;" class="s42" d="m832.75 535.3c4.79 76.35 54.41 96.99 93.11 97.81 38.7 0.83 36.6-21.44 39.79-35.76 3.2-14.33 10.58-23.54 19.84-7.11 9.27 16.43-4.52 64.62 9.62 65.65 14.14 1.03 23.06-21.86 30.79-46.23 7.72-24.36-3.57-44.48 3.75-37.77 7.31 6.71 12.84 30.89 12.84 30.89 1.52-4.59 2.58-9.76 3.2-15.1-0.23-12.24-5.5-23.41-21.83-28.53-16.29-5.11-3.72 19.53-12.94 8.33 0.46 0.63 0.92 1.26 1.45 1.9 12.26 15.01 18.7 20.27 11.08 28.17-7.62 7.91-31.34 0.23-30.11-8.74 0.56-4.06 2.65-13.66 3.53-22.85-0.04-0.19-0.09-0.36-0.13-0.57-5-23.32-14.43 1.61-24.57 14.87-10.15 13.27-9.91 7.17-2.56-17.36-8.93 11.58-18.05 24.66-25.67 25.6-13.67 1.7-13.64-3.79-7.01-16.28 6.62-12.49 24.53-34.58 10.37-55.2-14.16-20.62-36.39-31.44-36.39-31.44 68.54 23.84 49.86 47.82 49.86 47.82 3.46-2.34 7.83-6.02 11.15-10.89 5.85-23.83-32.79-43.94-52.77-49.31-19.98-5.37-20.74-12.44-20.74-12.44-7.16 32.04 40.97 63.82 30.51 63.79-10.46-0.04-101.07 3.1-90.81-44.95-4.45 12.88-6.93 30.78-5.36 55.7z"/>
		<g id="&lt;Group&gt;" style="opacity: .26;mix-blend-mode: multiply">
			<path id="&lt;Path&gt;" class="s43" d="m807.12 666.66q-1.26-0.57-2.55-1.41c0.12 11.05-2.61 20.52-11.2 28.32q2.31-0.39 4.6-0.93c6.69-7.39 9.08-16.07 9.15-25.98z"/>
			<path id="&lt;Path&gt;" class="s44" d="m701.47 511.43c5.95-1.16 10.23-11.86 13.84-34.6q-0.95-1.97-1.92-3.95c-0.14 0.88-0.28 1.7-0.42 2.62-3.32 21.3-7.35 32.55-11.99 33.45-2.19 0.43-4.72-1.6-7.4-4.84q0.5 2.35 0.97 4.68c2.3 2.02 4.59 3.09 6.92 2.64z"/>
			<path id="&lt;Path&gt;" class="s45" d="m407.56 666.32q0.91 3.89 1.08 7.77 1.23-0.93 2.46-1.86-0.32-3.68-1.27-7.37-1.14 0.73-2.27 1.46z"/>
			<path id="&lt;Path&gt;" class="s46" d="m766.61 604q-0.75-1.64-1.49-3.3c-1.96 5.62-6.16 15.17-13.24 19.99q0.57 1.12 1.13 2.24c6.93-4.55 11.24-12.88 13.6-18.93z"/>
			<path id="&lt;Path&gt;" class="s47" d="m551.8 685.19c-6.23 3.65-13.2 3.49-20.42-0.29q0.36 1.57 0.71 3.15c9.01 4.02 16.19 2.14 20.99-0.68 10.7-6.28 18.49-22.1 21.15-40.27q-1.03-2.38-1.96-4.55c-1.87 19.16-9.56 36.23-20.47 42.64z"/>
			<path id="&lt;Path&gt;" class="s48" d="m585.77 795.38q2.14 1.25 4.29 2.42c16.62-0.85 32.22-6.85 41.05-16.81 2.92-3.3 5.73-7.74 7.18-13.44q-1.02-1.47-2.04-2.96c-0.92 5.45-3.21 10.42-7.03 14.72-9.14 10.31-25.97 16.15-43.45 16.07z"/>
			<path id="&lt;Path&gt;" class="s49" d="m165.52 757.23c-18.11 7.76-43.26 3.45-74.74-12.79-1.36-0.7-2.67-1.45-3.99-2.18q3.42 3.33 6.89 6.37c30.27 14.88 54.8 18.64 72.84 10.93 13.73-5.88 21.32-17.38 25.57-27.87-0.75-0.41-1.47-0.86-2.2-1.29-4.03 10.1-11.25 21.22-24.37 26.83z"/>
			<path id="&lt;Path&gt;" class="s50" d="m543.71 620.51c-9.43 6.01-22.12 10.55-32.85 12.77 0.53 0.72 1.05 1.42 1.59 2.22 10.75-2.31 23.1-6.79 32.62-12.86 5.21-3.32 9.06-6.89 11.56-10.55q-0.81-1-1.67-1.96c-2.26 3.55-6.05 7.06-11.25 10.38z"/>
			<path id="&lt;Path&gt;" class="s51" d="m475.75 619.51c-3.04 5.29-6.51 10.21-10.03 14.6q3.37-2.16 6.32-4c3.11-4.36 6.02-9.09 8.36-14.03q-2.28 1.63-4.65 3.43z"/>
			<path id="&lt;Path&gt;" class="s52" d="m734.89 524.34q-0.66-1.9-1.31-3.79-0.65-1.91-1.39-3.96c0.04 1.34 0.09 2.63 0.13 4 0.68 25.34-4.29 43.24-13.37 48.64q0.75 1.02 1.5 2.05c9.26-5.78 14.54-22.92 14.44-46.94z"/>
			<path id="&lt;Path&gt;" class="s53" d="m25.25 488.55q-1.5 2.21-2.95 4.32c0.71-0.38 1.41-0.73 2.16-1.15 38.37-21.28 99.09 24 126.19 47.13q0.54-1.27 1.08-2.53c-27.23-23.36-86.5-67.4-126.48-47.77z"/>
			<path id="&lt;Path&gt;" class="s54" d="m408.2 286.72c-18.54 35.1-51.53 70.71-72.56 67.03-6.56-1.14-11.63-6.05-15.18-14.6 0.16 2.16 0.25 4.22 0.35 6.31 3.69 6.13 8.49 9.75 14.4 10.78 24.7 4.33 58.86-37.36 75.23-68.34 9.58-18.13 13.82-33.3 12.3-42.94q-1.61-1.41-3.31-2.74c3.29 8.29-0.75 24.67-11.23 44.5z"/>
			<path id="&lt;Path&gt;" class="s55" d="m178.88 419.46c-15.05-11.77-37.64-17.04-60.48-15.32q-2.32 1.46-4.62 2.97c23.83-2.86 47.91 2.11 63.55 14.34 15.08 11.79 21.32 29.22 18.04 50.42-0.2 1.28-0.32 2.49-0.43 3.7 0.9-0.57 1.82-1.1 2.74-1.64 0.08-0.57 0.09-1.09 0.18-1.68 3.43-22.15-3.14-40.4-18.98-52.79z"/>
			<path id="&lt;Path&gt;" class="s56" d="m385.04 397.85c-26.63 24.92-47.65 35.35-59.17 29.4-6.45-3.34-9.86-12.05-10.03-25.02q-0.99 4.01-2.05 7.47c1.26 9.93 4.9 16.68 10.92 19.79 12.74 6.58 34.19-3.72 62.05-29.8 42.49-39.75 58.85-90.29 54.25-127.53q-1.75-5.1-4.28-9.73c9.25 36.94-5.82 92.5-51.69 135.42z"/>
			<path id="&lt;Path&gt;" class="s57" d="m261.46 394.47c-3.76-2.17-7.64-4.14-11.72-5.88 24.79 17.9 58.33 49.29 66.11 79.72q1.41 0.39 2.77 0.79c-6.32-27.32-33.37-55.55-57.16-74.63z"/>
			<path id="&lt;Path&gt;" class="s58" d="m355.77 283.24c-17.05 12.9-34.92 12.29-48.96 8.18q1.17 1.54 2.25 3.25c14.14 3.51 31.55 3.21 48.23-9.42 10.15-7.67 15.48-16.69 15.85-26.79 0.43-11.89-6.03-22.74-11.65-29.88-1.03 0.06-2.08 0.16-3.12 0.23 5.59 6.79 12.68 17.79 12.25 29.57-0.34 9.3-5.34 17.67-14.85 24.86z"/>
			<path id="&lt;Path&gt;" class="s59" d="m270.67 262.75c-0.17 6.34-4.86 11.68-12.7 15.05q3.69-0.78 7.25-1.23c5.46-4.09 7.85-9.18 7.97-13.75 0.14-5.12-2.21-9.89-6.42-13.89q-1.37 0.44-2.72 0.88c4.34 3.69 6.74 8.16 6.62 12.94z"/>
			<path id="&lt;Path&gt;" class="s60" d="m187.02 377.17c-2.46 0.11-4.99 0.41-7.56 0.8 45.92 8.39 79.42 59.06 92.12 82.95q1.38 0.12 2.78 0.25c-12-22.94-43.63-71.66-87.34-84z"/>
			<path id="&lt;Path&gt;" class="s61" d="m349.88 701.83c-0.71 0.43-1.44 0.86-2.13 1.28 3.04 6.68 3.28 13.24 2.37 18.84q1.32-1.04 2.68-2.13c0.55-5.51-0.05-11.72-2.92-17.99z"/>
			<path id="&lt;Path&gt;" class="s62" d="m18 625.58c-0.78-0.98-1.49-1.8-2.24-2.72 0.84 2.39 1.73 4.74 2.6 7.09 34.97 41.32 82.65 39.64 118.25 32.89-0.24-0.83-0.52-1.6-0.74-2.44-35.7 6.73-83.63 8.24-117.87-34.82z"/>
			<path id="&lt;Path&gt;" class="s63" d="m304 256.31c0.42 7.26-13.67 16.19-21.76 20.42q1.94 0.32 3.8 0.8c7.78-4.36 20.96-13.01 20.48-21.37-0.27-4.68-4.62-8.47-12.92-11.25-2.2-0.74-4.51-1.43-6.85-2.1q-2.3 0.66-4.57 1.34c3.59 0.95 7.16 1.99 10.62 3.15 7.22 2.43 10.99 5.46 11.2 9.01z"/>
			<path id="&lt;Path&gt;" class="s64" d="m555.63 738.93c-6.24-0.45-11.23-4.41-14.97-11.78-0.58-1.14-1.17-2.2-1.76-3.32q0.63 3.83 1.19 7.43c3.97 6.31 9.08 9.73 15.23 10.18 16.97 1.1 37.21-20.35 47.78-33.22q-0.64-1.24-1.28-2.48c-10.11 12.39-30.28 34.22-46.19 33.19z"/>
		</g>
		<path id="&lt;Path&gt;" class="s65" d="m88.85 306.72c11.54-3.38 61.94 22.9 109.9 47.24 47.96 24.35 25.2 28.23 208.81-77.48 183.6-105.71 253.78-61.58 319.93 74 66.15 135.58 89.45 8.1 104.8-37.11 15.34-45.22 29.14-30.79 69 45.88 39.87 76.67 90.22-51.57 132.54-20.71 42.31 30.85 46.17 6.1 46.17 6.1 0 0-6.11 14.79-25.39 0.97-19.28-13.82-19.61-22.5-25.39-21.86-5.79 0.64-40.5 20.25-69.1 42.1-28.6 21.86-55.28 0.97-73.92-38.56-18.64-39.53-24.43-68.78-40.82-45-16.39 23.78-31.49 98.35-61.06 111.52-29.57 13.18-59.46-57.2-84.85-104.77-25.39-47.57-92.56-73.6-127.27-81.95-34.71-8.36-134.62 49.17-194.42 83.24-59.8 34.06-128.29 68.8-148.51 68.92-20.22 0.12-66.21-25.38-92.56-39.92-26.35-14.54-51.14-17.76-51.14-17.76z"/>
		<path id="&lt;Path&gt;" class="s7" d="m343.32 105.86c-4.81 5.05-26.53 51.75-31.5 50.06-4.97-1.69-49.49-14.86-62.1-7.85-1.75 0.97-3.24 1.89-4.56 2.76-32.66 19.52-64.42 44.55-89.53 76.35 5.3-5.51 17.67-14.23 38.33-5.78 0 0 25.89-28.31 71.09-60.36 8.6-3.95 62.88 8.56 65.05 5.56 2.16-2.99 22.36-54.48 25.49-56.17 3.13-1.68 77.45-4.57 77.45-4.57 0 0-84.9-5.05-89.72 0z"/>
		<path id="&lt;Path&gt;" class="s1" d="m265.05 161.04c8.6-3.95 62.88 8.56 65.05 5.56 2.16-2.99 22.36-54.48 25.49-56.17 3.13-1.68 77.45-4.57 77.45-4.57 0 0-51.48-3.06-76.54-2.03-8.71 0.2-17.24 30.67-23.18 43.61-7.07 15.43-2.74 13.61-21.5 8.48-2.36-0.8-13.63-4.19-26.16-6.78-3.43-0.64-6.56-1.2-8.96-1.64-8.52-1.56-61.53 27.37-90.57 71.4 2.47 0.57 5.07 1.37 7.83 2.5 0 0 25.89-28.31 71.09-60.36z"/>
	</g>
</svg>