<svg version="1.2" xmlns="http://www.w3.org/2000/svg" viewBox="0 0 1080 1080" width="1080" height="1080">
	<defs>
		<linearGradient id="g1" x2="1" gradientUnits="userSpaceOnUse" gradientTransform="matrix(0,-92.795,216.118,0,227.518,347.293)">
			<stop offset="0" stop-color="#9c0027"/>
			<stop offset="1" stop-color="#b81025"/>
		</linearGradient>
		<linearGradient id="g2" x2="1" gradientUnits="userSpaceOnUse" gradientTransform="matrix(0,-79.885,133.632,0,266.594,334.945)">
			<stop offset="0" stop-color="#cc0027"/>
			<stop offset="1" stop-color="#ed2425"/>
		</linearGradient>
		<linearGradient id="g3" x2="1" gradientUnits="userSpaceOnUse" gradientTransform="matrix(0,-324.655,451.023,0,419.491,332.727)">
			<stop offset="0" stop-color="#cc0027"/>
			<stop offset="1" stop-color="#ed2425"/>
		</linearGradient>
		<linearGradient id="g4" x2="1" gradientUnits="userSpaceOnUse" gradientTransform="matrix(0,-325.261,450.958,0,354.448,332.686)">
			<stop offset="0" stop-color="#9c0027"/>
			<stop offset="1" stop-color="#b81025"/>
		</linearGradient>
		<linearGradient id="g5" x2="1" gradientUnits="userSpaceOnUse" gradientTransform="matrix(6.585,-109.873,266.544,15.976,709.498,344.126)">
			<stop offset="0" stop-color="#9c0027"/>
			<stop offset="1" stop-color="#b81025"/>
		</linearGradient>
		<linearGradient id="g6" x2="1" gradientUnits="userSpaceOnUse" gradientTransform="matrix(6.078,-101.405,164.81,9.878,757.463,337.982)">
			<stop offset="0" stop-color="#cc0027"/>
			<stop offset="1" stop-color="#ed2425"/>
		</linearGradient>
		<linearGradient id="g7" x2="1" gradientUnits="userSpaceOnUse" gradientTransform="matrix(0,-751.421,951.083,0,306.816,1073.693)">
			<stop offset="0" stop-color="#b50027"/>
			<stop offset="1" stop-color="#ed2425"/>
		</linearGradient>
		<linearGradient id="g8" x2="1" gradientUnits="userSpaceOnUse" gradientTransform="matrix(0,-746.278,776.038,0,29.189,1069.48)">
			<stop offset="0" stop-color="#9c0027"/>
			<stop offset="1" stop-color="#b81025"/>
		</linearGradient>
		<linearGradient id="g9" x2="1" gradientUnits="userSpaceOnUse" gradientTransform="matrix(0,-751.237,649.309,0,215.426,1073.631)">
			<stop offset="0" stop-color="#9c0027"/>
			<stop offset="1" stop-color="#b81025"/>
		</linearGradient>
	</defs>
	<style>
		.s0 { fill: url(#g1) } 
		.s1 { fill: url(#g2) } 
		.s2 { mix-blend-mode: soft-light;fill: #baffff } 
		.s3 { opacity: .3;mix-blend-mode: multiply;fill: #cb7ab1 } 
		.s4 { opacity: .5;mix-blend-mode: multiply;fill: #ab2781 } 
		.s5 { fill: url(#g3) } 
		.s6 { fill: url(#g4) } 
		.s7 { fill: url(#g5) } 
		.s8 { fill: url(#g6) } 
		.s9 { fill: url(#g7) } 
		.s10 { fill: #ff5265 } 
		.s11 { fill: url(#g8) } 
		.s12 { fill: url(#g9) } 
		.s13 { mix-blend-mode: multiply;fill: #ab2781 } 
		.s14 { opacity: .2;mix-blend-mode: multiply;fill: #ab2781 } 
		.s15 { fill: #ff3c3d } 
		.s16 { mix-blend-mode: soft-light;fill: #ffba81 } 
		.s17 { fill: #ff9186 } 
		.s18 { fill: #cc6b81 } 
		.s19 { fill: #9a0033 } 
		.s20 { opacity: .5;mix-blend-mode: multiply;fill: #967566 } 
		.s21 { fill: #ff7981 } 
		.s22 { opacity: .3;mix-blend-mode: multiply;fill: #c9455b } 
		.s23 { opacity: .5;mix-blend-mode: multiply;fill: #c9455b } 
	</style>
	<g id="&lt;Group&gt;">
		<path id="&lt;Path&gt;" class="s0" d="m139.38 347.29c0 0 3.93-63.4 15.91-73.03 11.99-9.63 151.47-22.47 168.9-19.26 17.43 3.21 31.31 68.18 31.31 68.18z"/>
		<path id="&lt;Path&gt;" class="s1" d="m223.66 334.95c0 0 2.45-66.25 10.48-70.92 8.02-4.67 81.99-12.31 93.74-7.36 11.75 4.95 29.41 69.5 29.41 69.5z"/>
		<path id="&lt;Path&gt;" class="s2" d="m139.38 347.29c0 0 12.34-58.75 27.26-69.42 14.91-10.66 58.96-16.74 58.96-16.74 0 0-62.79 5.88-70.31 13.13-10.81 10.43-15.91 73.03-15.91 73.03z"/>
		<path id="&lt;Path&gt;" class="s3" d="m140.56 342.06c0 0 12.44-52.4 29.98-62.76 17.53-10.36 55.06-9.63 55.06-9.63l-1.94 65.28z"/>
		<path id="&lt;Path&gt;" class="s4" d="m268.66 279.65c0 0-22.53 10.22-33.06 23.7-10.54 13.47-11.94 31.6-11.94 31.6l33.14-2.26c0 0 0.61-34.83 11.86-53.04z"/>
		<path id="&lt;Path&gt;" class="s5" d="m310.83 332.73c0 0 0.24-46.43 15.51-54.86 15.26-8.42 32.38-15.86 38.52-22.81 6.14-6.95-21.06-171.81-18.77-194.28 1.8-17.59 197.37-44.98 298.06-52.56 27.9-2.1 88.2 19.07 93.9 20.46 26.24 6.42-41.44 214.4-40.17 226.38 1.26 11.98 48.62-8.37 59.24 0 10.63 8.37 0 67.21 0 67.21h-142.25c0 0 23.87-224.97 8.32-237.01-15.54-12.04-156.39 12.04-168.43 22.87-12.04 10.84-13.22 217.42-13.22 217.42z"/>
		<path id="&lt;Path&gt;" class="s6" d="m692.54 322.27h-142.32c0 0 23.89-224.92 8.39-236.99-15.63-12.07-156.43 12.07-168.5 22.87-12.07 10.8-13.21 217.42-13.21 217.42l-130.63 7.12c0 0 0.13-46.38 15.5-54.77 15.25-8.51 56.04-2.67 62.14-9.66 1.27-1.4 0.76-9.78-0.89-22.36v-0.51c-6.35-51.34-29.73-171.55-27.96-189.46 1.27-13.09 109.92-29.23 205.86-39.14 1.27-0.13 2.03-0.25 2.03-0.25 68.62-7.12 130.25-10.93 141.18-8.26 26.3 6.35-12.08 234.82-10.93 246.77 1.27 11.94 48.67-8.39 59.34 0 10.55 8.38 0 67.22 0 67.22z"/>
		<path id="&lt;Path&gt;" class="s7" d="m591.18 337.03c0 0 9.4-75.79 24.98-88.13 15.57-12.35 189.91-12.67 211.15-6.97 21.23 5.7 31.74 88.97 31.74 88.97z"/>
		<path id="&lt;Path&gt;" class="s8" d="m695.65 334.28c0 0 8.3-87.79 18.59-93.61 10.28-5.82 107.85-3.81 121.93 3.87 14.07 7.67 24.83 90.6 24.83 90.6z"/>
		<path id="&lt;Path&gt;" class="s9" d="m166.73 347.82c-69.94 20.14-29.15 682.98 0 711.87 29.15 28.89 836.29 6.42 865.19-8.03 28.89-14.44 60.66-669.06 41.4-707.58-19.26-38.52-828.55-18.73-906.59 3.74z"/>
		<path id="&lt;Path&gt;" class="s10" d="m578.83 322.39c0 0 138.86-3.95 183.8 20.11 0 0 183.77 14.42 230.32 12.02 46.54-2.41 80.37-10.44 80.37-10.44 0 0-8.03-18.18-215.55-21.93-207.51-3.75-278.94 0.24-278.94 0.24z"/>
		<path id="&lt;Path&gt;" class="s11" d="m753.03 1051.65c-23 11.44-420.73 22.87-602.06 15.5-47.78-2.03-80.57-5.21-87.68-10.04-46.38-31.89-99.5-683.25-29.48-703.46 3.3-0.89 7.62-1.9 12.83-2.79h0.13c117.92-21.73 697.49-45.24 715.91-8.39 19.19 38.5 19.19 694.69-9.65 709.18z"/>
		<path id="&lt;Path&gt;" class="s12" d="m908.69 1058.89c-17.92 9.02-337.71 13.98-583.34 14.74 242.71-1.4 554.03-4.71 563.31-21.98 69.79-130 60.61-669.02 41.42-707.53-7.24-14.36-124.15-20.71-272.18-21.73 156.93 0.51 305.09 4.29 312.59 19.28 19.31 38.51-32.95 702.73-61.8 717.22z"/>
		<path id="&lt;Path&gt;" class="s13" d="m390.14 108.13c-3.54 10.03 47.27 6.79 64.62 0 17.35-6.78 103.81-22.87 103.81-22.87 0 0-48.94-28.49-168.43 22.87z"/>
		<path id="&lt;Path&gt;" class="s10" d="m616.16 248.9c0 0 19.85-14.97 104.42-15.57 84.57-0.6 115.59 11.21 115.59 11.21 0 0-57.8-5.49-124.62-0.98-66.81 4.52-95.39 5.34-95.39 5.34z"/>
		<path id="&lt;Path&gt;" class="s2" d="m150.97 1067.15c-47.78-2.03-80.57-5.21-87.68-10.04-46.38-31.89-99.5-683.25-29.48-703.46 3.3-0.89 7.62-1.9 12.83-2.79-35.96 15.63-47.39 332.29-11.94 520.48 28.59 152.35 92.76 187.81 116.27 195.81z"/>
		<path id="&lt;Path&gt;" class="s2" d="m323.02 245.39c-6.35-51.34-29.73-171.55-27.96-189.46 1.27-13.09 109.92-29.23 205.86-39.14-19.7 3.05-177.14 27.83-180.69 51.59-2.8 19.57 0.88 128.85 2.79 177.01z"/>
		<path id="&lt;Path&gt;" class="s14" d="m753.03 1051.65c6.55-16.07 21.62-172.27 32.06-186.71 10.43-14.45 134.02-8.03 141.24 0 7.23 8.02-27.18 175.44-37.67 186.71-10.5 11.27-135.63 0-135.63 0z"/>
		<path id="&lt;Path&gt;" class="s14" d="m919.11 1051.13c0 0 97.74-1.15 107.54-4.02 9.8-2.86 29.7-160.51 28.89-175.75-0.8-15.25-101.12-1.61-105.93 4.81-4.82 6.42-30.5 174.96-30.5 174.96z"/>
		<path id="&lt;Path&gt;" class="s15" d="m753.03 1051.65c0 0 37.57-405.59 15.95-667.93 0 0 57.1 407.38-15.95 667.93z"/>
		<path id="&lt;Path&gt;" class="s15" d="m603.12 7.42c34.7 5.61 54.49 43.51 44.81 123.67 0 0 22.44-90.45 19.63-110.91-2.81-20.47-64.44-12.76-64.44-12.76z"/>
		<path id="&lt;Path&gt;" class="s3" d="m94.8 377.07c-53.78 63.05-108.28 446.13 21.75 561.7 130.03 115.57 527.31-196.41 585.08-430.46 57.77-234.05-585.33-156.46-606.83-131.24z"/>
		<path id="&lt;Path&gt;" class="s4" d="m135.42 1060c0 0 218.7-45.79 384.02-61.84 165.33-16.05 233.59 53.49 233.59 53.49l52.5 12.3c0 0-426.53 22.58-670.11-3.95z"/>
		<path id="&lt;Path&gt;" class="s15" d="m1078.2 383.72c0 0 14.07 424.69-36.4 639.95 0 0 30.15-318.62 36.4-639.95z"/>
		<path id="&lt;Path&gt;" class="s15" d="m937.01 383.72c0 0 9.86 384.11-36.52 639.95 0 0 72.08-387.64 36.52-639.95z"/>
		<path id="&lt;Path&gt;" class="s4" d="m879.08 327.07c0 0 78.61 1.51 91.41 14.6 12.79 13.1-10.72 197.19-18.47 203.45-7.76 6.26-6.42-194.05-16.05-200.75-9.64-6.71-56.89-17.3-56.89-17.3z"/>
		<path id="&lt;Path&gt;" class="s3" d="m593.6 320.54c0 0 14.58-58.03 32.93-65.48 18.34-7.45 63.8-6.01 66.01-0.01 2.2 5.99 4.69 64.41 4.69 64.41z"/>
		<path id="&lt;Path&gt;" class="s3" d="m246.27 332.69c0 0 3.46-39.24 15.1-47.42 11.63-8.17 67.41-14.6 82.26-9.38 14.85 5.22 33.27 49.68 33.27 49.68z"/>
		<path id="&lt;Path&gt;" class="s4" d="m610.48 250c0 0-35.48 27.74-47.35 45-11.88 17.26-12.91 27.27-12.91 27.27l43.38-1.73c0 0 1.63-41.46 16.88-70.54z"/>
		<path id="&lt;Path&gt;" class="s16" d="m441.94 123.01c-14.97-9.37-54.71 18.65-60.66 47.04-5.95 28.4-2.26 121.03 6.73 133.3 8.99 12.27 31.46 11.46 45.91-38.29 14.44-49.76 8.02-142.05 8.02-142.05z"/>
		<path id="&lt;Path&gt;" class="s16" d="m681.1 16.79c-16.98-5.86-30.88 119.06-31.09 165.6-0.21 46.55 60.42-10.64 76.15-61.22 15.73-50.59 20.2-89.93 11.89-92.49-8.32-2.56-56.95-11.89-56.95-11.89z"/>
		<path id="&lt;Path&gt;" class="s17" d="m778.33 327.07c-13.01 1.79 19.94 27.56 64.08 27.72 44.14 0.15 76.25-13.86 76.25-13.86 0 0-95.27-20.06-140.33-13.86z"/>
		<path id="&lt;Path&gt;" class="s17" d="m954.77 330.46c-11.64 0.15 5.63 23.35 28.09 24.32 22.47 0.96 46.3-3.38 46.3-3.38 0 0-1.03-21.86-74.39-20.94z"/>
		<path id="&lt;Path&gt;" class="s17" d="m603.12 7.42c0 0 28.91-2.61 46.89 0 17.98 2.61 23.11 3.53 23.11 3.53 0 0-5.32 31.5-70-3.53z"/>
		<path id="&lt;Path&gt;" class="s18" d="m507.54 682.1l-25.8-3.3 16.78 18.68-141.18 239.91-146.63-181.59 11.81-10.67h-20.45l-22.12-27.45 67.73-113.85 24.65 42.57-8.38 12.83-6.1 51.34 19.31 17.66-9.65-38.37 19.18 8.38 12.58-5.59 51.85 89.33 98.6-184.76 40.03 3.43-12.83 6.48h19.31l34.44-5.21-52.99-27.7c0 0-5.85-1.65-13.72-3.94l38.62-72.3h113.35z"/>
		<g id="&lt;Group&gt;">
			<path id="&lt;Path&gt;" class="s19" d="m782.93 674.78c-13.04-12.38-49.78 62.18-16.87 99.51 32.9 37.33 45.23-72.59 16.87-99.51z"/>
			<path id="&lt;Path&gt;" class="s20" d="m755.13 713.98c-7.29 46 33.38 45.17 40.71 7.19 7.34-37.97-19.51-47.88-22.79-44.33-3.29 3.55-15.98 24.91-17.92 37.14z"/>
			<path id="&lt;Path&gt;" class="s21" d="m770.68 778.6c-14.14-20.57 24.41-33.01 27.86-41.29 3.45-8.27-7.49 61.59-27.86 41.29z"/>
		</g>
		<path id="&lt;Path&gt;" class="s22" d="m411.02 505.13c-0.15 41.07-14.48 76.21-35.27 62.13-24.83-16.84-56.4-27.88-52.92-65.73 0.64-6.63 1.02-13.67 1.64-20.72 2.73-33.13 7.57-66.68 39.83-56.84 0 0 39 8.72 45.34 58.05 1.05 7.71 1.47 15.56 1.38 23.11z"/>
		<path id="&lt;Path&gt;" class="s23" d="m411.02 505.13l-0.86 4.94c0 0-0.13-25.41-11.85-46.58-11.73-21.06-27.85-37.41-47.38-28.48-19.4 9.03-26.46 45.8-26.46 45.8 2.73-33.13 7.57-66.68 39.83-56.84 0 0 39 8.72 45.34 58.05 1.05 7.71 1.47 15.56 1.38 23.11z"/>
		<path id="&lt;Path&gt;" class="s22" d="m646.05 898.51c-3.16 22.05-13.9 39.84-24.63 30.71-12.82-10.92-29.89-19.23-25.1-39.3 0.87-3.51 1.6-7.27 2.48-11.01 4.02-17.59 9.27-35.25 26.82-27.53 0 0 21.46 7.63 21.37 34.61 0.02 4.22-0.33 8.47-0.94 12.52z"/>
		<path id="&lt;Path&gt;" class="s23" d="m646.05 898.51l-0.86 2.59c0 0 1.82-13.67-3.24-25.92-5.07-12.2-12.99-22.2-24.73-18.88-11.67 3.39-18.42 22.61-18.42 22.61 4.02-17.59 9.27-35.25 26.82-27.53 0 0 21.46 7.63 21.37 34.61 0.02 4.22-0.33 8.47-0.94 12.52z"/>
		<path id="&lt;Path&gt;" class="s17" d="m695.65 239.3c-16.87 4.26 5.52 27.87 9.65 28.07 4.14 0.19 36.86-25.25 36.86-25.25 0 0-18.62-9.87-46.51-2.82z"/>
	</g>
</svg>