<svg version="1.2" xmlns="http://www.w3.org/2000/svg" viewBox="0 0 1080 1080" width="1080" height="1080">
	<defs>
		<linearGradient id="g1" x2="1" gradientUnits="userSpaceOnUse" gradientTransform="matrix(179.366,-55.002,59.023,192.479,67.832,738.15)">
			<stop offset="0" stop-color="#ffea34"/>
			<stop offset=".634" stop-color="#ff8100"/>
			<stop offset=".696" stop-color="#ffa400"/>
			<stop offset="1" stop-color="#ffba00"/>
		</linearGradient>
		<linearGradient id="g2" x2="1" gradientUnits="userSpaceOnUse" gradientTransform="matrix(167.594,-51.392,57.162,186.408,48.245,448.209)">
			<stop offset="0" stop-color="#ff5900"/>
			<stop offset=".226" stop-color="#fe6800"/>
			<stop offset=".385" stop-color="#f66a00"/>
			<stop offset="1" stop-color="#f63f00"/>
		</linearGradient>
		<linearGradient id="g3" x2="1" gradientUnits="userSpaceOnUse" gradientTransform="matrix(261.93,13.507,-12.422,240.89,175.871,487.659)">
			<stop offset="0" stop-color="#b01500"/>
			<stop offset=".226" stop-color="#fe6800"/>
			<stop offset=".564" stop-color="#f66a00"/>
			<stop offset="1" stop-color="#bb0e00"/>
		</linearGradient>
		<linearGradient id="g4" x2="1" gradientUnits="userSpaceOnUse" gradientTransform="matrix(694.8,-213.059,223.372,728.433,-390.47,-3784.565)">
			<stop offset="0" stop-color="#ff5900"/>
			<stop offset=".226" stop-color="#fe6800"/>
			<stop offset=".662" stop-color="#fa9300"/>
			<stop offset=".849" stop-color="#f66a00"/>
			<stop offset="1" stop-color="#f63f00"/>
		</linearGradient>
		<linearGradient id="g5" x2="1" gradientUnits="userSpaceOnUse" gradientTransform="matrix(532.3,-163.229,166.897,544.263,-40.064,275.017)">
			<stop offset="0" stop-color="#ffac15"/>
			<stop offset=".634" stop-color="#ff8100"/>
			<stop offset=".696" stop-color="#ffa400"/>
			<stop offset="1" stop-color="#ffba00"/>
		</linearGradient>
		<linearGradient id="g6" x2="1" gradientUnits="userSpaceOnUse" gradientTransform="matrix(211.105,-64.735,70.634,230.342,646.88,-281.198)">
			<stop offset="0" stop-color="#ff5900"/>
			<stop offset=".226" stop-color="#fe6800"/>
			<stop offset=".385" stop-color="#f66a00"/>
			<stop offset="1" stop-color="#f63f00"/>
		</linearGradient>
		<linearGradient id="g7" x2="1" gradientUnits="userSpaceOnUse" gradientTransform="matrix(269.829,13.914,-9.612,186.398,301.139,-16.483)">
			<stop offset="0" stop-color="#ffea34"/>
			<stop offset=".634" stop-color="#ff8100"/>
			<stop offset=".696" stop-color="#ffa400"/>
			<stop offset="1" stop-color="#ffba00"/>
		</linearGradient>
		<linearGradient id="g8" x2="1" gradientUnits="userSpaceOnUse" gradientTransform="matrix(253.116,-77.617,81.821,266.824,174.873,-219.731)">
			<stop offset="0" stop-color="#ff5900"/>
			<stop offset=".226" stop-color="#fe6800"/>
			<stop offset=".385" stop-color="#f66a00"/>
			<stop offset="1" stop-color="#f63f00"/>
		</linearGradient>
		<linearGradient id="g9" x2="1" gradientUnits="userSpaceOnUse" gradientTransform="matrix(422.502,-7.729,10.438,570.581,344.023,348.261)">
			<stop offset="0" stop-color="#ffac15"/>
			<stop offset=".634" stop-color="#ff8100"/>
			<stop offset="1" stop-color="#ffa400"/>
		</linearGradient>
		<linearGradient id="g10" x2="1" gradientUnits="userSpaceOnUse" gradientTransform="matrix(415.57,-7.602,8.935,488.408,413.786,149.715)">
			<stop offset="0" stop-color="#ffac15"/>
			<stop offset=".634" stop-color="#ff8100"/>
			<stop offset=".696" stop-color="#ffa400"/>
			<stop offset="1" stop-color="#ffba00"/>
		</linearGradient>
		<linearGradient id="g11" x2="1" gradientUnits="userSpaceOnUse" gradientTransform="matrix(222.125,-68.114,74.056,241.503,484.352,-478.287)">
			<stop offset="0" stop-color="#ff5900"/>
			<stop offset=".226" stop-color="#fe6800"/>
			<stop offset="1" stop-color="#e82c00"/>
		</linearGradient>
		<linearGradient id="g12" x2="1" gradientUnits="userSpaceOnUse" gradientTransform="matrix(376.761,19.428,-21.256,412.197,650.624,263.469)">
			<stop offset="0" stop-color="#ffba00"/>
			<stop offset="1" stop-color="#ff8100"/>
		</linearGradient>
		<linearGradient id="g13" x2="1" gradientUnits="userSpaceOnUse" gradientTransform="matrix(274.408,-84.147,75.61,246.568,661.626,-393.619)">
			<stop offset="0" stop-color="#ff5900"/>
			<stop offset=".226" stop-color="#fe6800"/>
			<stop offset="1" stop-color="#e82c00"/>
		</linearGradient>
		<linearGradient id="g14" x2="1" gradientUnits="userSpaceOnUse" gradientTransform="matrix(60.862,-18.663,12.299,40.109,763.489,289.381)">
			<stop offset="0" stop-color="#ff5900"/>
			<stop offset=".226" stop-color="#fe6800"/>
			<stop offset="1" stop-color="#f66a00"/>
		</linearGradient>
		<linearGradient id="g15" x2="1" gradientUnits="userSpaceOnUse" gradientTransform="matrix(128.538,6.628,-4.217,81.769,638.937,-263.222)">
			<stop offset="0" stop-color="#ffba00"/>
			<stop offset=".209" stop-color="#fe6800"/>
			<stop offset="1" stop-color="#d41b00"/>
		</linearGradient>
	</defs>
	<style>
		.s0 { fill: url(#g1) } 
		.s1 { fill: url(#g2) } 
		.s2 { fill: url(#g3) } 
		.s3 { fill: url(#g4) } 
		.s4 { fill: url(#g5) } 
		.s5 { fill: #d13c00 } 
		.s6 { mix-blend-mode: soft-light;fill: #ffffff } 
		.s7 { opacity: .2;mix-blend-mode: multiply;fill: #da0553 } 
		.s8 { fill: url(#g6) } 
		.s9 { fill: url(#g7) } 
		.s10 { fill: url(#g8) } 
		.s11 { fill: url(#g9) } 
		.s12 { fill: url(#g10) } 
		.s13 { fill: url(#g11) } 
		.s14 { fill: url(#g12) } 
		.s15 { fill: url(#g13) } 
		.s16 { fill: url(#g14) } 
		.s17 { opacity: .5;mix-blend-mode: multiply;fill: #d42f55 } 
		.s18 { opacity: .5;mix-blend-mode: soft-light;fill: #ffffff } 
		.s19 { fill: #ffe016 } 
		.s20 { fill: #ffffff } 
		.s21 { opacity: .8;mix-blend-mode: multiply;fill: #d42f55 } 
		.s22 { opacity: .3;mix-blend-mode: multiply;fill: #d42f55 } 
		.s23 { fill: #dc2c00 } 
		.s24 { fill: #ff8300 } 
		.s25 { fill: #ffa400 } 
		.s26 { fill: #ffcf95 } 
		.s27 { fill: #ed4800 } 
		.s28 { fill: url(#g15) } 
	</style>
	<g id="&lt;Group&gt;">
		<path id="&lt;Path&gt;" class="s0" d="m286.99 988c0 0-82.06 67.47-132.5 37.37-50.41-30.07-27.7-140.94-27.7-140.94 0 0 51.74 83.97 160.2 103.57z"/>
		<path id="&lt;Path&gt;" class="s1" d="m126.79 884.43c7.74-24.38 197.52 67.79 160.2 103.57-37.07 35.56-174.1-59.84-160.2-103.57z"/>
		<path id="&lt;Path&gt;" class="s2" d="m244.71 681.81c-69.16-10.87-16.41 98.95 52.56 130.95 69.09 32.06 115.52 12.59 126.23-3.08 10.74-15.71-30.67 67.19-30.67 67.19l-183.01 4.6-43.77-210.07 27.71-35.63z"/>
		<path id="&lt;Path&gt;" class="s3" d="m557.11 699.67c0 0 0 0 0.07 0.05 26.28 17.66 43.84 30.54 47.04 34.91 9.68 13.16-7.22 59.42-18.85 74.13l-444.56-263.83c24.22-34.26 56.55-46.88 70.85-43.04 0.2 0.02 0.35 0.11 0.54 0.12 53.9 14.96 252.59 135.61 344.91 197.66z"/>
		<path id="&lt;Compound Path&gt;" fill-rule="evenodd" class="s4" d="m578.74 794.91c5.79 6.38 8.22 11.15 6.63 13.85-11.05 18.81-101.38 111.65-208.55 145.65-0.24 0.06-0.39 0.15-0.39 0.15-56.1 17.75-116.95 19.35-174.31-13.98-25.26-14.67-44.39-35.32-58.68-59.52-67.78-114.66-27.11-312.88-2.63-336.13 2.32-2.24 8.31-2.01 17.08 0.26 76.84 19.7 371.26 194.65 420.85 249.72zm-306.37 47c57.93 22.29 148.09-1.74 152.82-43.14 4.74-41.58-184.17-132.61-211.16-119.99-34.5 16.18 0.64 140.85 58.34 163.13z"/>
		<path id="&lt;Path&gt;" class="s5" d="m170 915.67c0 0 9.72 58.96 87.61 46.7 0 0-47.17-7.5-87.61-46.7z"/>
		<path id="&lt;Path&gt;" class="s6" d="m172.49 911.25c41.96 45.89 74.91-58.12 66.82-82.06-8.1-23.99-48.36-86-45.74-136.08 2.63-50.34 85-0.19 99.97-10.98 14.99-10.81-6.13-66.05-25.51-81.82-19.37-15.77-92.02-65.74-124.74-40.64-32.57 24.97-58.51 255.68 29.2 351.58z"/>
		<path id="&lt;Path&gt;" class="s6" d="m386.92 938.76c-57.74 7.03-11.45-64.93 32.28-112.05 44.09-47.49-16.08-61.05-23.05-82.42-6.98-21.4 61.06-24.8 94.51-9.41 33.49 15.41 90.29 50.12 74.73 81.5-15.48 31.25-109.22 113.95-178.47 122.38z"/>
		<path id="&lt;Path&gt;" class="s7" d="m206.91 927.91c-7.84 11.96 49.64 38.53 79.38 31.15 29.83-7.4 21.19-86.82 20.55-95.71-0.64-8.89-43.52-33.71-51.79-30.81-8.27 2.9-19.76 52.09-48.14 95.37z"/>
		<path id="&lt;Path&gt;" class="s7" d="m298.64 687.01c-0.93 4.78 21.54 20.17 39.7 23.57 18.18 3.4 23.61-38.31 28.77-50.8 5.16-12.51-65.57-44.94-75.19-48.44-9.63-3.5 13 43.33 6.72 75.67z"/>
		<path id="&lt;Path&gt;" class="s8" d="m920.56 442.11c0 0 29.15-48.91 33.08-55.51 3.94-6.61-177.91-111.76-177.91-111.76 0 0-36.96 41.44-32.83 56.67 4.13 15.21 177.66 110.6 177.66 110.6z"/>
		<path id="&lt;Path&gt;" class="s9" d="m299.64 517.72c0 0-15.17 39.29-18.16 58.46-3.33 21.28 22.33 64.93 74.68 96.25 71.46 42.75 137.41 50.22 150.94 40.62 13.55-9.61 44.52-59.38 44.52-59.38 0 0-177.64 11.46-251.98-135.95z"/>
		<path id="&lt;Path&gt;" class="s10" d="m299.64 517.72c2.69-49.93 272.27 79.36 251.98 135.95-20.14 56.19-256.27-56.58-251.98-135.95z"/>
		<path id="&lt;Path&gt;" class="s11" d="m373.79 563.26c71.87-214.88 202-416.05 202-416.05 0 0 57.54 81.36 146.57 86.35 0 0-101.12 217.73-228.88 393.99-76.62 3.92-119.69-64.29-119.69-64.29z"/>
		<path id="&lt;Path&gt;" class="s12" d="m429.25 377.7c0 0 95.64 87.53 189.27 93.59l179.24-311.01c0 0-149.31-59.81-214.36-126.11z"/>
		<path id="&lt;Path&gt;" class="s13" d="m583.4 34.17c18.32-59.72 247.35 68.86 214.36 126.11-24.07 41.76-232.44-67.18-214.36-126.11z"/>
		<path id="&lt;Path&gt;" class="s14" d="m1013.77 293.28c-0.7 1.71-3.47 7.07-7.62 14.58-15.89 28.98-50.71 89.31-54.45 89.51-4.68 0.17-151.73-95.37-157.3-92.7-5.56 2.68-14.32 21.18-15.02 27.64-0.82 6.48 146.8 100.38 141.21 109.77-0.65 1.07-2.08 3.65-4.12 7.43-16.61 30.71-74.25 139.03-83.14 138.97-9.93-0.07-193.2-154.75-200.04-142.88l145.34-267.62c0 0 21.79 9.76 52.11 23.69 69.9 32.04 185.33 85.96 183.03 91.61z"/>
		<path id="&lt;Path&gt;" class="s15" d="m1050.06 227.01c-4.88 28.41-43.91 80.85-43.91 80.85 0 0-46.42-25.94-102.64-57.97l-1.11-0.66c-40.81-23.17-86.61-49.38-123.77-71.25l21.49-37.33c0 0 67.98 22.14 133.06 44.12 57.62 19.48 113.06 38.71 116.88 42.24z"/>
		<path id="&lt;Path&gt;" class="s16" d="m779.33 332.31l53.94-6.78-41.21-24.28z"/>
		<path id="&lt;Path&gt;" class="s17" d="m266.57 792.87c0 0-13.29 30.04-17.07 30.24-3.79 0.21-38.1-45.63-41.48-75.57-3.4-30.02 5.02-35.93 5.02-35.93 0 0 3.38 43.11 53.53 81.26z"/>
		<path id="&lt;Path&gt;" class="s17" d="m348.62 828.62c0 0-6.54 12.78-2.97 16.24 3.57 3.46 43.46-6.7 52.42-12.59 8.97-5.89 11.43-7.86 11.43-7.86 0 0-38.77 5.71-60.88 4.21z"/>
		<path id="&lt;Path&gt;" class="s6" d="m249.5 823.11c0.14 4.01 29.63 23.44 47.37 25.26 17.75 1.82 43.11-1.1 45.03-2.24 1.92-1.13 5.98-16.2 5.98-16.2 0 0-40.99-8.43-55.58-16.79-14.59-8.37-22.75-17.38-24.84-17.5-2.09-0.11-17.96 27.47-17.96 27.47z"/>
		<path id="&lt;Path&gt;" class="s17" d="m237.88 518.75c-23.01 0.83-42.42 28.05-43.29 34.85-0.88 6.79 60.64 30.24 73.68 37.76 13.04 7.53 12.29-20.51 22.05-40.11 9.78-19.65-52.44-32.5-52.44-32.5z"/>
		<path id="&lt;Path&gt;" class="s17" d="m507.1 713.05c-14.59 15.36 59.18 63.72 63.71 67.59 4.54 3.87 24.13-39.79 23.77-47.29-0.36-7.51-58.61-44.88-62.17-45.29-3.55-0.41-25.31 24.99-25.31 24.99z"/>
		<path id="&lt;Path&gt;" class="s6" d="m588.87 803.7c-3.66 0.44-8.48-28.39-0.53-47.74 7.96-19.4 15.61-19.2 17.77-17.31 2.16 1.88-1.92 40.92-17.24 65.05z"/>
		<path id="&lt;Path&gt;" class="s6" d="m149.87 1015.81c16.95 9.22 22.69-42.33 11.39-58.86-11.32-16.54-31.88-43.37-31.88-43.37 0 0-22.43 67.78 20.49 102.23z"/>
		<path id="&lt;Path&gt;" class="s6" d="m282.38 580.13c1.65 14.62 30.26 57.79 48.23 67.84 17.98 10.05 22.88-41.09 21.17-45.2-1.72-4.12-38.73-41.12-48.84-59.54-10.13-18.45-20.56 36.9-20.56 36.9z"/>
		<path id="&lt;Path&gt;" class="s6" d="m384.47 554.63c-2.37 19.96 23.93 44.29 34.64 46.89 10.73 2.6 73.45-145.97 72.66-154.09-0.79-8.12-44.89-49.68-44.89-49.68 0 0-57.24 113.38-62.41 156.88z"/>
		<path id="&lt;Path&gt;" class="s6" d="m448.59 361.62c-13.13 21.48 36.61 53.81 51.92 56.46 15.32 2.66 138.64-274 140.32-283.63 1.69-9.63-50.86-51.14-58.38-66.28-7.52-15.14-133.86 293.45-133.86 293.45z"/>
		<path id="&lt;Path&gt;" class="s18" d="m218.29 1026.9c-34.75-1.62 18.23-27.89 36.65-28.36 18.45-0.47-36.65 28.36-36.65 28.36z"/>
		<path id="&lt;Path&gt;" class="s18" d="m479.56 623.25c-18.75 0.46 92.92-150.4 105.17-152.56 12.27-2.16-82.33 152-105.17 152.56z"/>
		<path id="&lt;Path&gt;" class="s18" d="m610.08 457.06c-25.54 4.96 65.32-279.36 74.35-291.34 9.04-12.01 89.7 9.6 89.7 9.6 0 0-130.26 275.19-164.05 281.74z"/>
		<path id="&lt;Path&gt;" class="s7" d="m429.33 608.42c-15.49-7.86 22.55-54.01 45.49-110.59 23.09-56.98 19.96-65 26.23-64.71 6.28 0.3 22.93 11 18.7 38.52-4.21 27.43-63.33 150.52-90.42 136.78z"/>
		<path id="&lt;Path&gt;" class="s7" d="m508.11 420.66c-6.91 12.55 23.39 25.25 31.74 23.19 8.35-2.06 75.2-174.36 109.85-232.08 34.92-58.18 36.4-55.98 26.49-63.14-9.92-7.17-18.85-20.79-28.58-13.51-9.72 7.28-118.68 247.77-139.5 285.54z"/>
		<path id="&lt;Path&gt;" class="s7" d="m342.79 657.86c-3.83 5.89 33.95 28.95 47.45 25.5 13.51-3.46 31.08-34.97 27.65-41.39-3.43-6.42-42.93-31.7-49.55-29.38-6.62 2.32-25.55 45.27-25.55 45.27z"/>
		<path id="&lt;Path&gt;" class="s7" d="m159.06 1021.29c9.68 6.61 28.36-5.52 35.48-17.82 7.14-12.34-3.2-30.96-16.2-39.3-13.01-8.35-4.21 23.54-13.45 38-9.21 14.44-9.41 16.67-5.83 19.12z"/>
		<path id="&lt;Path&gt;" class="s19" d="m429.25 377.7c0 0 102.26 89.62 189.27 93.59 0 0-88.94 13.44-189.27-93.59z"/>
		<path id="&lt;Path&gt;" class="s19" d="m283.72 593.69c0 0 62.52 126.66 221.21 122.72 0 0-142.21 25.62-221.21-122.72z"/>
		<path id="&lt;Path&gt;" class="s19" d="m261.44 995.68c0 0-102.91-24.34-135.21-100.33 0 0 24.91 87.48 135.21 100.33z"/>
		<path id="&lt;Path&gt;" class="s20" d="m192 972.3c-4.2 0.33-27.14-16.76-26.41-19.15 0.72-2.39 28.39 9.03 26.41 19.15z"/>
		<path id="&lt;Path&gt;" class="s20" d="m128 952.54c5.9 12.31 21.31 1.79 13.59-15.62-7.72-17.44-22.13-2.22-13.59 15.62z"/>
		<path id="&lt;Path&gt;" class="s20" d="m125.17 637.32c-3.76 44.87 51.62 22.48 73.51-13.49 22-36.16-36.84-77.57-50.94-63.81-14.07 13.72-22.57 77.3-22.57 77.3z"/>
		<path id="&lt;Path&gt;" class="s20" d="m300.5 557.4c-2.54 10.36 13.12 18.71 19.76 16.1 6.64-2.6-17.22-26.47-19.76-16.1z"/>
		<path id="&lt;Path&gt;" class="s20" d="m521.05 182.43c-52.3 130.49 55.52 5.09 75.93-35.7 20.52-41-6.1-68.57-17.69-73.09-11.57-4.52-58.24 108.79-58.24 108.79z"/>
		<path id="&lt;Path&gt;" class="s21" d="m303.04 537.47c-0.1 5.76 35.46 50.31 89.05 77.86 53.65 27.58 101.39 12.22 101.39 12.22 0 0-106.58-30.13-112.21-84.17l6.14-18.88c0 0-70.69-30.04-83.19-12.98-7.07 9.63-1.18 25.95-1.18 25.95z"/>
		<path id="&lt;Path&gt;" class="s17" d="m596.9 71.02c37.39 39.34 72.42 7.57 122.27 21.83 49.95 14.29-17.86-48.51-71.06-67.32-53.11-18.77-84.33 10.64-51.21 45.49z"/>
		<path id="&lt;Path&gt;" class="s17" d="m779.33 332.31c0 0 83.77 59.24 122.67 67.38 38.97 8.16 37.1-9.94 37.1-9.94l-105.83-64.22z"/>
		<path id="&lt;Path&gt;" class="s22" d="m933.18 184.77l2.15 1.26c40.34 29.48-87.08-5.18-111.8-0.66-7.33 1.3-2.85 7.85 7.21 16.3 18.94 16.01 57.49 39.22 71.66 47.56l1.11 0.66c2.69 1.58 4.27 2.51 4.27 2.51 0 0-125.26-53.45-127.33-54.99-2.03-1.62-97.82 242.1-83.73 267.81 14.02 25.74 118.68 111.23 132.51 111.97 13.85 0.74 87.83-129.2 87.83-129.2l-0.59 1.52c-16.61 30.71-74.25 139.03-83.14 138.97-9.93-0.07-193.2-154.75-200.04-142.88l145.34-267.62 21.49-37.33c0 0 67.98 22.14 133.06 44.12z"/>
		<path id="&lt;Path&gt;" class="s6" d="m835.23 567.09c-25.3 14.66-101.31-55.99-104.53-97.91-3.23-42.07 49.81-96.76 82.41-92.04 32.65 4.73 94.91 47.1 94.48 68.39-0.43 21.24-72.36 121.56-72.36 121.56z"/>
		<path id="&lt;Path&gt;" class="s6" d="m837.92 301.63c8.15 23.13 106.03 90.08 115.72 84.97 9.7-5.12 39.73-67.68 40.1-76.58 0.37-8.91-122.28-75.74-141.84-70.59-19.52 5.14-18.32 49.9-13.98 62.2z"/>
		<path id="&lt;Path&gt;" class="s18" d="m1013.77 293.28c-15.98 9.9-128.5-56.56-132.83-68.12-4.33-11.58 92.41-28.44 137.54-10.89 45.19 17.57-4.71 79.01-4.71 79.01z"/>
		<path id="&lt;Path&gt;" class="s21" d="m951.7 397.37c0 0 42.03-58.14 48.55-92.82 0 0 40.63-41.37 49.81-77.54 0 0-4.07 20.41-42.05 82.28 0 0-42.35 72.2-56.31 88.08z"/>
		<path id="&lt;Path&gt;" class="s21" d="m792.02 559.2c0 0 27.58 18.29 40.75 16.47 13.17-1.83 78.41-119.04 81.3-127.61 2.89-8.58-0.62-15.63-0.62-15.63l34.73-36.67-29.39 49.31c0 0-73.97 143.68-85.46 143.41-7.42-0.18-41.31-29.28-41.31-29.28z"/>
		<path id="&lt;Path&gt;" class="s17" d="m626.01 18.96c0 0-29.54 12.81-40.94 34.14-11.37 21.28-142.39 309.34-145.75 317.93-3.36 8.58 6.54 23.9 6.54 23.9 0 0-38.33 82.12-62.33 141.52 0 0 35.74-98.96 58.58-145.62l-12.86-13.13c0 0 146.02-324.75 154.9-344.88 8.9-20.18 41.86-13.86 41.86-13.86z"/>
		<path id="&lt;Path&gt;" class="s17" d="m212.2 502.01c-0.26 0.84-1.71 1.65-4.36 2.25-12.09 2.79-31.43 15.33-49.95 40.93-1.67 2.14-3.27 4.51-4.91 6.96-14.08 21.34-27.35 50.53-36.16 88.82-20.94 91.73 26.62 240.09 26.62 240.09-67.78-114.66-27.11-312.88-2.63-336.13 24.22-34.26 56.55-46.88 70.85-43.04 0.2 0.02 0.35 0.11 0.54 0.12z"/>
		<path id="&lt;Path&gt;" class="s21" d="m557.18 699.72c26.28 17.66 43.84 30.54 47.04 34.91 9.68 13.16-7.22 59.42-18.85 74.13-11.05 18.81-101.38 111.65-208.55 145.65 8.42-3.76 145.04-64.63 186.09-131.47 4.49-7.31 8.42-14.18 11.9-20.45 1.34-2.64 2.72-5.16 3.93-7.58 24.61-48.44 17.9-66.65 14.16-69.76-4.3-3.54-33.74-24.06-35.72-25.43z"/>
		<path id="&lt;Path&gt;" class="s21" d="m525.73 581.42c0 0 44-75.19 54.7-95.25 10.73-20.1 10.73-18.67 10.73-18.67 0 0 23.92-3.17 29.82-10.28 5.9-7.12 31.39-46.75 31.39-46.75 0 0-8.66 21.54-8.7 25.87-0.03 4.33 11.95 19.47 11.95 19.47 0 0-17.2-11.86-19.76-11.03-2.57 0.82-16.26 24.63-16.26 24.63l-24.92 1.63c0 0-46.55 78.01-68.95 110.38z"/>
		<path id="&lt;Path&gt;" class="s20" d="m629.9 108.75c-5.91 4.94 18.57 25.39 33.96 29.3 15.41 3.91 17.7 1.11 17.7 1.11 0 0-40.33-39.88-51.66-30.41z"/>
		<path id="&lt;Path&gt;" class="s20" d="m505.3 436.43c-1.59 6.25-34.01-19.18-37.45-24.32-3.44-5.13 33.88 11.66 37.45 24.32z"/>
		<path id="&lt;Path&gt;" class="s20" d="m356.45 676.91c-1.42 8.43-27.89-15.77-33.65-24.86-5.76-9.09 28.7 14.96 33.65 24.86z"/>
		<path id="&lt;Path&gt;" class="s20" d="m290.46 847.11c-11.02-0.7-31.11-10.8-49.74-33 0 0 9.37 41.79 49.74 33z"/>
		<path id="&lt;Path&gt;" class="s21" d="m154.49 1025.37c0 0 60.07 13.81 114.81-28.4 0 0 26.25-14.96 19.46-30.29 0 0 11.13 15.28-6.75 25.43 0 0-77.99 59.9-127.52 33.26z"/>
		<path id="&lt;Path&gt;" class="s23" d="m398.58 624.72c-10.05 11.78 20.08 29.56 31.92 29.11 11.84-0.46 13.87-2.89 14.66-6.53 0.79-3.63-35.86-35.15-46.58-22.58z"/>
		<path id="&lt;Path&gt;" class="s23" d="m593.98 420.04c-16.18 5.76-28.15-3.13-28.16-9.56-0.01-6.45 20.7-16.12 32.57-12.34 11.87 3.78 3.69 19.01-4.41 21.9z"/>
		<path id="&lt;Path&gt;" class="s24" d="m583.42 421.88c0 0 11.21-2.05 15.81-10.58 4.62-8.55-4.79-13.9-4.79-13.9 0 0 10.12-0.99 13.02 7.69 2.9 8.67-9.96 18.47-24.04 16.79z"/>
		<path id="&lt;Path&gt;" class="s25" d="m606.19 405.65c-0.84 3.7-8.68-3.02-8.24-5.27 0.44-2.24 9.08 1.57 8.24 5.27z"/>
		<path id="&lt;Path&gt;" class="s21" d="m565.82 410.48c-1.82 12.28 21.07 10.97 27.34 0.12 6.27-10.86-5.34-13.14-7.96-12.49-2.62 0.65-18.73 7.93-19.38 12.37z"/>
		<path id="&lt;Path&gt;" class="s21" d="m397.54 634.02c1.3 8.26 23.11 12.82 31.75 11.2 8.65-1.62-7.39-17.67-19.25-20.5-11.85-2.82-13.52 2.83-12.5 9.3z"/>
		<path id="&lt;Path&gt;" class="s24" d="m412.91 648.15c0 0 19.08 7.14 25.55 0.47 6.47-6.69-11.57-18.23-11.57-18.23 0 0 21.54 14.57 19.52 19.97-2.01 5.4-18.61 6.36-33.5-2.21z"/>
		<path id="&lt;Path&gt;" class="s26" d="m444.61 652.43c-4.22 1.6-5.5-12.6-5.5-12.6 0 0 11.56 8.53 5.5 12.6z"/>
		<path id="&lt;Path&gt;" class="s21" d="m545.07 662.53c7.58-15.95-12.35-50.21-29.78-65.82 0 0 58.8 41.68 29.78 65.82z"/>
		<path id="&lt;Path&gt;" class="s20" d="m493.71 874.45c-19.31 11.65-4.51-21.99 12.91-22.11 17.44-0.11-12.91 22.11-12.91 22.11z"/>
		<path id="&lt;Path&gt;" class="s20" d="m883.82 468.61c-14.86 16.01-14.59-16.44-16.25-37.04-1.66-20.64 55.26-1.52 16.25 37.04z"/>
		<path id="&lt;Path&gt;" class="s17" d="m184.77 961.55c37.52 21.04 19.41-6.35-4.69-34.11-24.13-27.8-36.64-46.38-36.64-46.38 0 0-11.37-0.81-13.56 13.74-2.18 14.52 24.19 49.54 54.89 66.75z"/>
		<path id="&lt;Path&gt;" class="s20" d="m876.33 238.96c-1.43 7.03 29.77 43.6 64.25 31.97 4.35-1.46-61.78-44.06-64.25-31.97z"/>
		<path id="&lt;Path&gt;" class="s6" d="m162.5 539.11c-7.48 10.03 42.59-7.81 53.34-16.95 10.77-9.17-8-17.9-8-17.9 0 0-37.17 11.37-45.34 34.85z"/>
		<path id="&lt;Path&gt;" class="s27" d="m511.25 367.34c2.3 18.67 67.55 23.75 77.66 10.75 10.03-12.88-31.83-28.52-44.77-30.52-13.06-2.02-32.89 19.77-32.89 19.77z"/>
		<path id="&lt;Path&gt;" class="s24" d="m563.31 385.29c0 0 7.42-2.06 4.45-13.72-3.78-14.85-22.1-23.72-22.1-23.72 0 0 37.2 6.28 48.25 22.03 10.98 15.65-19.66 15.66-30.6 15.41z"/>
		<path id="&lt;Path&gt;" class="s17" d="m542.2 383.91c30.63 0.16 2.12-21.75-3.15-25.88-5.28-4.15-0.09-10.24-0.09-10.24 0 0-27.37 11.12-27.71 19.55-0.33 8.44 30.95 16.57 30.95 16.57z"/>
		<path id="&lt;Path&gt;" class="s25" d="m590.15 365.71c3.15 7.1-7.43-1.91-15.15-7.05-7.76-5.17 10.39 1.29 15.15 7.05z"/>
		<path id="&lt;Path&gt;" class="s28" d="m756.24 129.58c-1.16 1.96-2.87 3.34-5.26 4.18-26.05 10.05-121.3-41.22-121.31-73.76-0.08-1.56 0.09-3.1 0.58-4.57 10.72-35.09 145.39 40.59 125.99 74.15z"/>
		<path id="&lt;Path&gt;" class="s21" d="m750.98 133.76c-26.05 10.05-121.3-41.22-121.31-73.76 26.77-12.53 120.98 41.54 121.31 73.76z"/>
	</g>
</svg>